<svg width="150" height="40" viewBox="0 0 150 40" fill="none" xmlns="http://www.w3.org/2000/svg">
<path d="M21.5354 20L18.8584 22.7104L16.1836 20L18.8584 17.2896L21.5354 20ZM28.0257 13.4185L32.6094 18.0656L35.2841 15.3552L28.0257 8L20.7673 15.3552L23.442 18.0656L28.0257 13.4185ZM37.1953 17.2896L34.5206 20L37.1953 22.7104L39.8678 20L37.1953 17.2896ZM28.0257 26.5815L23.442 21.9367L20.7673 24.6448L28.0257 32L35.2841 24.6448L32.6094 21.9367L28.0257 26.5815ZM28.0257 22.7104L30.7005 20L28.0257 17.2896L25.3509 20L28.0257 22.7104ZM56.2542 22.9707V22.9332C56.2542 21.1653 55.3287 20.2814 53.8224 19.6999C54.7479 19.1723 55.53 18.3447 55.53 16.8605V16.823C55.53 14.755 53.8965 13.4185 51.2425 13.4185H45.2173V26.5815H51.3952C54.3268 26.5815 56.2589 25.3787 56.2589 22.9707H56.2542ZM52.691 17.3435C52.691 18.3212 51.8927 18.7362 50.6317 18.7362H48.0009V15.9578H50.8214C52.0269 15.9578 52.6956 16.4455 52.6956 17.3107L52.691 17.3435ZM53.4152 22.6096C53.4152 23.5873 52.6539 24.0375 51.3906 24.0375H48.0009V21.1465H51.3027C52.7696 21.1465 53.4198 21.6928 53.4198 22.5768L53.4152 22.6096ZM62.2586 26.5815V13.4185H59.3918V26.5815H62.2586ZM77.62 26.5815V13.4185H74.7902V21.524L68.7049 13.4185H66.0694V26.5815H68.89V18.2134L75.1789 26.5815H77.62ZM93.4488 26.5815L87.8725 13.3247H85.2371L79.6724 26.5815H82.5854L83.7771 23.6295H89.2701L90.457 26.5815H93.4488ZM88.2543 21.0715H84.7928L86.5189 16.8042L88.2543 21.0715ZM107.07 26.5815V13.4185H104.24V21.524L98.1528 13.4185H95.5197V26.5815H98.3379V18.2134L104.629 26.5815H107.07ZM121.821 24.4572L120.004 22.5955C118.984 23.5334 118.075 24.136 116.589 24.136C114.363 24.136 112.822 22.2603 112.822 20V19.9625C112.822 17.7069 114.4 15.864 116.589 15.864C117.887 15.864 118.903 16.4267 119.912 17.3482L121.724 15.2239C120.518 14.0211 119.053 13.1934 116.603 13.1934C112.614 13.1934 109.831 16.2579 109.831 19.993V20.0305C109.831 23.8101 112.67 26.7995 116.492 26.7995C118.993 26.8066 120.476 25.9039 121.812 24.4572H121.821ZM134.015 26.5815V24.0023H126.953V21.2333H133.078V18.6542H126.953V15.9953H133.913V13.4162H124.114V26.5791L134.015 26.5815Z" fill="#616877"/>
</svg>
