<svg width="96" height="94" viewBox="0 0 96 94" fill="none" xmlns="http://www.w3.org/2000/svg">
<path d="M19.828 16.1169C21.505 10.8995 26.1096 7.16824 31.5613 6.6091L45.8039 5.14832L65.4118 3.13725L86.6266 0.961369C91.43 0.468719 95.449 4.56083 94.8699 9.35452L86.9498 74.9155C85.734 84.9796 76.2767 91.9292 66.3089 90.0834L9.81927 79.6223C4.61161 78.6579 1.43519 73.3389 3.05587 68.2968L19.828 16.1169Z" fill="white"/>
<mask id="mask0_216_768" style="mask-type:alpha" maskUnits="userSpaceOnUse" x="2" y="0" width="93" height="91">
<path d="M19.828 16.1169C21.505 10.8995 26.1096 7.16824 31.5613 6.6091L44.549 5.27702L55.2157 4.18301L86.6266 0.96137C91.43 0.468719 95.449 4.56083 94.8699 9.35452L86.9498 74.9155C85.734 84.9796 76.2767 91.9292 66.3089 90.0834L9.81927 79.6223C4.61161 78.6579 1.43519 73.3389 3.05587 68.2968L19.828 16.1169Z" fill="white"/>
</mask>
<g mask="url(#mask0_216_768)">
<path d="M27.713 5.58415L24.9959 7.74191L26.1069 11.0289L23.3898 13.1867L24.5007 16.4737L21.7836 18.6314L22.8945 21.9185L20.1774 24.0762L21.2884 27.3632L18.5713 29.521L19.6822 32.808L16.9651 34.9657L18.076 38.2528L15.3589 40.4105L16.4698 43.6975L13.7527 45.8553L14.8637 49.1423L12.1466 51.3L13.2575 54.5871L10.5404 56.7448L11.6513 60.0318L8.93424 62.1896L10.0452 65.4766L7.32807 67.6343L8.439 70.9214L5.7219 73.0791L6.83283 76.3661L4.11573 78.5239L5.22667 81.8109L2.50956 83.9686" stroke="url(#paint0_linear_216_768)" stroke-width="1.2549"/>
<path d="M86.2442 -1.30358L83.2404 1.52622L84.8867 5.31039L81.883 8.14019L83.5293 11.9244L80.5256 14.7542L82.1719 18.5383L79.1681 21.3681L80.8144 25.1523L77.8107 27.9821L79.457 31.7662L76.4533 34.596L78.0996 38.3802L75.0958 41.21L76.7421 44.9942L73.7384 47.824L75.3847 51.6081L72.381 54.4379L74.0273 58.2221L71.0235 61.0519L72.6699 64.8361L69.6661 67.6659L71.3124 71.45L68.3087 74.2798L69.955 78.064L66.9512 80.8938L68.5976 84.678L65.5938 87.5078L67.2401 91.2919L64.2364 94.1217" stroke="url(#paint1_linear_216_768)" stroke-width="1.49256"/>
<path d="M31.4777 5.58415L28.7606 7.74191L29.8716 11.0289L27.1545 13.1867L28.2654 16.4737L25.5483 18.6314L26.6592 21.9185L23.9421 24.0762L25.0531 27.3632L22.336 29.521L23.4469 32.808L20.7298 34.9657L21.8407 38.2528L19.1236 40.4105L20.2346 43.6975L17.5175 45.8553L18.6284 49.1423L15.9113 51.3L17.0222 54.5871L14.3051 56.7448L15.4161 60.0318L12.6989 62.1896L13.8099 65.4766L11.0928 67.6343L12.2037 70.9214L9.48661 73.0791L10.5975 76.3661L7.88044 78.5239L8.99138 81.8109L6.27427 83.9686" stroke="url(#paint2_linear_216_768)" stroke-width="1.2549"/>
<path d="M90.7049 -1.68126L87.7012 1.14854L89.3475 4.9327L86.3438 7.7625L87.9901 11.5467L84.9863 14.3765L86.6327 18.1606L83.6289 20.9904L85.2752 24.7746L82.2715 27.6044L83.9178 31.3886L80.914 34.2184L82.5604 38.0025L79.5566 40.8323L81.2029 44.6165L78.1992 47.4463L79.8455 51.2305L76.8418 54.0603L78.4881 57.8444L75.4843 60.6742L77.1306 64.4584L74.1269 67.2882L75.7732 71.0724L72.7695 73.9022L74.4158 77.6863L71.412 80.5161L73.0584 84.3003L70.0546 87.1301L71.7009 90.9142L68.6972 93.744" stroke="url(#paint3_linear_216_768)" stroke-width="1.49256"/>
<path d="M35.2424 5.58415L32.5253 7.74191L33.6363 11.0289L30.9192 13.1867L32.0301 16.4737L29.313 18.6314L30.4239 21.9185L27.7068 24.0762L28.8178 27.3632L26.1007 29.521L27.2116 32.808L24.4945 34.9657L25.6054 38.2528L22.8883 40.4105L23.9993 43.6975L21.2822 45.8553L22.3931 49.1423L19.676 51.3L20.7869 54.5871L18.0698 56.7448L19.1808 60.0318L16.4637 62.1896L17.5746 65.4766L14.8575 67.6343L15.9684 70.9214L13.2513 73.0791L14.3623 76.3661L11.6451 78.5239L12.7561 81.8109L10.039 83.9686" stroke="url(#paint4_linear_216_768)" stroke-width="1.2549"/>
<path d="M95.1682 -2.05895L92.1644 0.77085L93.8107 4.55501L90.807 7.38481L92.4533 11.169L89.4496 13.9988L91.0959 17.7829L88.0921 20.6127L89.7385 24.3969L86.7347 27.2267L88.381 31.0109L85.3773 33.8407L87.0236 37.6248L84.0198 40.4546L85.6662 44.2388L82.6624 47.0686L84.3087 50.8528L81.305 53.6826L82.9513 57.4667L79.9476 60.2965L81.5939 64.0807L78.5901 66.9105L80.2364 70.6947L77.2327 73.5245L78.879 77.3086L75.8753 80.1384L77.5216 83.9226L74.5178 86.7524L76.1641 90.5366L73.1604 93.3664" stroke="url(#paint5_linear_216_768)" stroke-width="1.49256"/>
</g>
<g clip-path="url(#clip0_216_768)">
<path d="M37.6806 56.9627C37.5132 55.2118 38.1246 50.5147 39.4435 43.3767C40.1209 39.7102 40.6871 37.0325 41.1502 35.0812C40.3578 34.2644 39.1437 33.3403 37.5266 33.0416C34.5793 32.497 32.1611 34.3526 31.8947 34.5653C31.5525 34.841 31.2818 35.1958 31.1065 35.5993C30.9982 35.8486 30.0143 38.2293 28.8004 44.7988C27.5866 51.3684 27.6558 53.9382 27.6676 54.2115C27.6862 54.6563 27.8144 55.0922 28.0423 55.475C28.2169 55.7692 29.827 58.3563 32.7496 58.8963C34.976 59.3076 36.8983 58.3513 37.8213 57.7672C37.7549 57.5021 37.7054 57.2347 37.6806 56.9627Z" fill="#FF3228"/>
<path d="M50.3764 59.3104C50.2054 57.5497 51.0013 51.8738 52.7437 42.4437C53.4456 38.6444 54.2988 34.2649 55.082 30.8983C54.2909 30.0744 53.0671 29.1339 51.4322 28.8318C48.4849 28.2873 46.067 30.1412 45.8006 30.3539C45.4777 30.6147 45.2148 30.9472 45.0405 31.3253C44.8672 31.698 43.9137 34.0533 42.1006 43.8659C40.2876 53.6786 40.3209 56.1648 40.3719 56.7018C40.4109 57.0955 40.5342 57.4791 40.737 57.8188C40.9099 58.1127 42.5179 60.7012 45.444 61.2419C47.6704 61.6533 49.5948 60.6955 50.5179 60.1114C50.4511 59.8481 50.4037 59.5792 50.3764 59.3104Z" fill="url(#paint6_linear_216_768)"/>
<path d="M50.3764 59.3104C50.2054 57.5497 51.0013 51.8738 52.7437 42.4437C53.4456 38.6444 54.2988 34.2649 55.082 30.8983C54.2909 30.0744 53.0671 29.1339 51.4322 28.8318C48.4849 28.2873 46.067 30.1412 45.8006 30.3539C45.4777 30.6147 45.2148 30.9472 45.0405 31.3253C44.8672 31.698 43.9137 34.0533 42.1006 43.8659C40.2876 53.6786 40.3209 56.1648 40.3719 56.7018C40.4109 57.0955 40.5342 57.4791 40.737 57.8188C40.9099 58.1127 42.5179 60.7012 45.444 61.2419C47.6704 61.6533 49.5948 60.6955 50.5179 60.1114C50.4511 59.8481 50.4037 59.5792 50.3764 59.3104Z" fill="#232323"/>
<path d="M58.1381 63.5891C55.212 63.0485 53.604 60.4599 53.4312 60.166C53.2286 59.8246 53.1044 59.4463 53.0657 59.0508C52.9232 57.6012 53.7742 51.7267 55.3987 42.9343C57.756 30.1761 58.7253 27.5673 58.9653 27.0713C59.1416 26.7119 59.3923 26.3955 59.7059 26.1458C59.9709 25.9309 62.3888 24.0771 65.3379 24.622C68.264 25.1626 69.872 27.7512 70.0448 28.045C70.2571 28.403 70.386 28.8059 70.4154 29.2217C70.4564 29.7733 70.4062 32.5628 68.0581 45.2714C65.7528 57.748 64.8076 60.5242 64.5072 61.1391C64.3312 61.4968 64.0804 61.8131 63.7686 62.0632C63.5022 62.2759 61.0843 64.1298 58.137 63.5852L58.1381 63.5891Z" fill="black"/>
<path d="M58.1381 63.5891C55.212 63.0485 53.604 60.4599 53.4312 60.166C53.2286 59.8246 53.1044 59.4463 53.0657 59.0508C52.9232 57.6012 53.7742 51.7267 55.3987 42.9343C57.756 30.1761 58.7253 27.5673 58.9653 27.0713C59.1416 26.7119 59.3923 26.3955 59.7059 26.1458C59.9709 25.9309 62.3888 24.0771 65.3379 24.622C68.264 25.1626 69.872 27.7512 70.0448 28.045C70.2571 28.403 70.386 28.8059 70.4154 29.2217C70.4564 29.7733 70.4062 32.5628 68.0581 45.2714C65.7528 57.748 64.8076 60.5242 64.5072 61.1391C64.3312 61.4968 64.0804 61.8131 63.7686 62.0632C63.5022 62.2759 61.0843 64.1298 58.137 63.5852L58.1381 63.5891Z" fill="url(#paint7_linear_216_768)"/>
</g>
<defs>
<linearGradient id="paint0_linear_216_768" x1="26.756" y1="5.30184" x2="3.46657" y2="84.251" gradientUnits="userSpaceOnUse">
<stop stop-color="#E3E6F0"/>
<stop offset="0.213033" stop-color="#DEDFE1"/>
<stop offset="0.366426" stop-color="white"/>
<stop offset="0.703277" stop-color="#DDE3E7"/>
<stop offset="0.845" stop-color="#A2B8C6"/>
</linearGradient>
<linearGradient id="paint1_linear_216_768" x1="85.0816" y1="-1.54217" x2="65.3989" y2="94.3603" gradientUnits="userSpaceOnUse">
<stop stop-color="#E3E6F0"/>
<stop offset="0.213033" stop-color="#DEDFE1"/>
<stop offset="0.366426" stop-color="white"/>
<stop offset="0.703277" stop-color="#DDE3E7"/>
<stop offset="0.845" stop-color="#A2B8C6"/>
</linearGradient>
<linearGradient id="paint2_linear_216_768" x1="30.5207" y1="5.30184" x2="7.23128" y2="84.251" gradientUnits="userSpaceOnUse">
<stop stop-color="#E3E6F0"/>
<stop offset="0.213033" stop-color="#DEDFE1"/>
<stop offset="0.366426" stop-color="white"/>
<stop offset="0.703277" stop-color="#DDE3E7"/>
<stop offset="0.845" stop-color="#A2B8C6"/>
</linearGradient>
<linearGradient id="paint3_linear_216_768" x1="89.5424" y1="-1.91986" x2="69.8597" y2="93.9826" gradientUnits="userSpaceOnUse">
<stop stop-color="#E3E6F0"/>
<stop offset="0.213033" stop-color="#DEDFE1"/>
<stop offset="0.366426" stop-color="white"/>
<stop offset="0.703277" stop-color="#DDE3E7"/>
<stop offset="0.845" stop-color="#A2B8C6"/>
</linearGradient>
<linearGradient id="paint4_linear_216_768" x1="34.2854" y1="5.30184" x2="10.996" y2="84.251" gradientUnits="userSpaceOnUse">
<stop stop-color="#E3E6F0"/>
<stop offset="0.213033" stop-color="#DEDFE1"/>
<stop offset="0.366426" stop-color="white"/>
<stop offset="0.703277" stop-color="#DDE3E7"/>
<stop offset="0.845" stop-color="#A2B8C6"/>
</linearGradient>
<linearGradient id="paint5_linear_216_768" x1="94.0057" y1="-2.29754" x2="74.3229" y2="93.605" gradientUnits="userSpaceOnUse">
<stop stop-color="#E3E6F0"/>
<stop offset="0.213033" stop-color="#DEDFE1"/>
<stop offset="0.366426" stop-color="white"/>
<stop offset="0.703277" stop-color="#DDE3E7"/>
<stop offset="0.845" stop-color="#A2B8C6"/>
</linearGradient>
<linearGradient id="paint6_linear_216_768" x1="50.6157" y1="28.681" x2="44.6274" y2="61.091" gradientUnits="userSpaceOnUse">
<stop stop-color="#FF863B"/>
<stop offset="1" stop-color="#FE1F1F"/>
</linearGradient>
<linearGradient id="paint7_linear_216_768" x1="65.3281" y1="24.6202" x2="58.1284" y2="63.5873" gradientUnits="userSpaceOnUse">
<stop stop-color="#FFAA3A"/>
<stop offset="1" stop-color="#FF0804"/>
</linearGradient>
<clipPath id="clip0_216_768">
<rect width="43.2291" height="43.2291" fill="white" transform="translate(31.707 16.5764) rotate(10.4682)"/>
</clipPath>
</defs>
</svg>
