<svg width="96" height="94" viewBox="0 0 96 94" fill="none" xmlns="http://www.w3.org/2000/svg">
<path d="M19.828 16.1169C21.505 10.8995 26.1096 7.16824 31.5613 6.6091L45.8039 5.14832L65.4118 3.13725L86.6266 0.961369C91.43 0.468719 95.449 4.56083 94.8699 9.35452L86.9498 74.9155C85.734 84.9796 76.2767 91.9292 66.3089 90.0834L9.81927 79.6223C4.61161 78.6579 1.43519 73.3389 3.05587 68.2968L19.828 16.1169Z" fill="white"/>
<mask id="mask0_216_800" style="mask-type:alpha" maskUnits="userSpaceOnUse" x="2" y="0" width="93" height="91">
<path d="M19.828 16.1169C21.505 10.8995 26.1096 7.16824 31.5613 6.6091L44.549 5.27702L55.2157 4.18301L86.6266 0.96137C91.43 0.468719 95.449 4.56083 94.8699 9.35452L86.9498 74.9155C85.734 84.9796 76.2767 91.9292 66.3089 90.0834L9.81927 79.6223C4.61161 78.6579 1.43519 73.3389 3.05587 68.2968L19.828 16.1169Z" fill="white"/>
</mask>
<g mask="url(#mask0_216_800)">
<path d="M27.713 5.58415L24.9959 7.74191L26.1069 11.0289L23.3898 13.1867L24.5007 16.4737L21.7836 18.6314L22.8945 21.9185L20.1774 24.0762L21.2884 27.3632L18.5713 29.521L19.6822 32.808L16.9651 34.9657L18.076 38.2528L15.3589 40.4105L16.4698 43.6975L13.7527 45.8553L14.8637 49.1423L12.1466 51.3L13.2575 54.5871L10.5404 56.7448L11.6513 60.0318L8.93424 62.1896L10.0452 65.4766L7.32807 67.6343L8.439 70.9214L5.7219 73.0791L6.83283 76.3661L4.11573 78.5239L5.22667 81.8109L2.50956 83.9686" stroke="url(#paint0_linear_216_800)" stroke-width="1.2549"/>
<path d="M86.2442 -1.30358L83.2404 1.52622L84.8867 5.31039L81.883 8.14019L83.5293 11.9244L80.5256 14.7542L82.1719 18.5383L79.1681 21.3681L80.8144 25.1523L77.8107 27.9821L79.457 31.7662L76.4533 34.596L78.0996 38.3802L75.0958 41.21L76.7421 44.9942L73.7384 47.824L75.3847 51.6081L72.381 54.4379L74.0273 58.2221L71.0235 61.0519L72.6699 64.8361L69.6661 67.6659L71.3124 71.45L68.3087 74.2798L69.955 78.064L66.9512 80.8938L68.5976 84.678L65.5938 87.5078L67.2401 91.2919L64.2364 94.1217" stroke="url(#paint1_linear_216_800)" stroke-width="1.49256"/>
<path d="M31.4777 5.58415L28.7606 7.74191L29.8716 11.0289L27.1545 13.1867L28.2654 16.4737L25.5483 18.6314L26.6592 21.9185L23.9421 24.0762L25.0531 27.3632L22.336 29.521L23.4469 32.808L20.7298 34.9657L21.8407 38.2528L19.1236 40.4105L20.2346 43.6975L17.5175 45.8553L18.6284 49.1423L15.9113 51.3L17.0222 54.5871L14.3051 56.7448L15.4161 60.0318L12.6989 62.1896L13.8099 65.4766L11.0928 67.6343L12.2037 70.9214L9.48661 73.0791L10.5975 76.3661L7.88044 78.5239L8.99138 81.8109L6.27427 83.9686" stroke="url(#paint2_linear_216_800)" stroke-width="1.2549"/>
<path d="M90.7049 -1.68126L87.7012 1.14854L89.3475 4.9327L86.3438 7.7625L87.9901 11.5467L84.9863 14.3765L86.6327 18.1606L83.6289 20.9904L85.2752 24.7746L82.2715 27.6044L83.9178 31.3886L80.914 34.2184L82.5604 38.0025L79.5566 40.8323L81.2029 44.6165L78.1992 47.4463L79.8455 51.2305L76.8418 54.0603L78.4881 57.8444L75.4843 60.6742L77.1306 64.4584L74.1269 67.2882L75.7732 71.0724L72.7695 73.9022L74.4158 77.6863L71.412 80.5161L73.0584 84.3003L70.0546 87.1301L71.7009 90.9142L68.6972 93.744" stroke="url(#paint3_linear_216_800)" stroke-width="1.49256"/>
<path d="M35.2424 5.58415L32.5253 7.74191L33.6363 11.0289L30.9192 13.1867L32.0301 16.4737L29.313 18.6314L30.4239 21.9185L27.7068 24.0762L28.8178 27.3632L26.1007 29.521L27.2116 32.808L24.4945 34.9657L25.6054 38.2528L22.8883 40.4105L23.9993 43.6975L21.2822 45.8553L22.3931 49.1423L19.676 51.3L20.7869 54.5871L18.0698 56.7448L19.1808 60.0318L16.4637 62.1896L17.5746 65.4766L14.8575 67.6343L15.9684 70.9214L13.2513 73.0791L14.3623 76.3661L11.6451 78.5239L12.7561 81.8109L10.039 83.9686" stroke="url(#paint4_linear_216_800)" stroke-width="1.2549"/>
<path d="M95.1682 -2.05895L92.1644 0.77085L93.8107 4.55501L90.807 7.38481L92.4533 11.169L89.4496 13.9988L91.0959 17.7829L88.0921 20.6127L89.7385 24.3969L86.7347 27.2267L88.381 31.0109L85.3773 33.8407L87.0236 37.6248L84.0198 40.4546L85.6662 44.2388L82.6624 47.0686L84.3087 50.8528L81.305 53.6826L82.9513 57.4667L79.9476 60.2965L81.5939 64.0807L78.5901 66.9105L80.2364 70.6947L77.2327 73.5245L78.879 77.3086L75.8753 80.1384L77.5216 83.9226L74.5178 86.7524L76.1641 90.5366L73.1604 93.3664" stroke="url(#paint5_linear_216_800)" stroke-width="1.49256"/>
</g>
<path d="M44.5801 54.2209L40.1828 53.7587C38.033 53.5327 35.6982 55.0201 34.9945 57.064L34.8345 57.5285L32.8801 57.3231C32.0789 57.2389 31.1968 57.8008 30.9345 58.5626C30.6722 59.3244 31.1192 60.026 31.9205 60.1102L55.373 62.5752C56.1743 62.6594 57.0563 62.0975 57.3186 61.3357C57.5809 60.5739 57.1339 59.8723 56.3327 59.7881L54.3783 59.5827L54.5382 59.1182C55.242 57.0743 54.0589 55.2171 51.9091 54.9912L47.5117 54.529L48.9768 50.274C48.469 50.2784 47.974 50.2456 47.4854 50.1943C46.9969 50.1429 46.5147 50.073 46.0453 49.9659L44.5801 54.2209Z" fill="url(#paint6_linear_216_800)"/>
<path d="M44.5801 54.2209L40.1828 53.7587C38.033 53.5327 35.6982 55.0201 34.9945 57.064L34.8345 57.5285L32.8801 57.3231C32.0789 57.2389 31.1968 57.8008 30.9345 58.5626C30.6722 59.3244 31.1192 60.026 31.9205 60.1102L55.373 62.5752C56.1743 62.6594 57.0563 62.0975 57.3186 61.3357C57.5809 60.5739 57.1339 59.8723 56.3327 59.7881L54.3783 59.5827L54.5382 59.1182C55.242 57.0743 54.0589 55.2171 51.9091 54.9912L47.5117 54.529L48.9768 50.274C48.469 50.2784 47.974 50.2456 47.4854 50.1943C46.9969 50.1429 46.5147 50.073 46.0453 49.9659L44.5801 54.2209Z" fill="url(#paint7_linear_216_800)"/>
<path d="M62.9379 43.424C64.3877 43.0951 65.7836 42.4524 66.9769 41.6922C69.4534 39.9694 71.4325 37.8092 72.3538 35.1336C73.2751 32.458 71.7897 29.0501 68.9754 28.7543L67.8809 28.6393C67.4615 26.0345 65.3922 24.0457 62.3042 23.7211L49.0444 24.457C47.9683 24.457 44.5884 25.2073 42.4672 27.5451C42.4672 27.5451 44.1519 27.5451 41.3442 27.5451C38.5366 27.5451 35.5282 29.3612 34.6069 32.0368C33.6856 34.7125 33.8448 36.2268 35.0034 38.3316C35.6081 39.2808 36.4793 40.1618 37.6093 40.7619C38.004 45.7322 41.7383 49.5902 47.4841 50.1941C53.23 50.7981 59.2675 47.967 62.9379 43.424ZM57.8649 36.749L56.167 38.0338C55.9012 38.2177 55.6236 38.6121 55.5472 38.8928L55.0375 40.7261C54.7318 41.8491 53.693 42.3368 52.7393 41.813L51.1912 40.9572C50.9496 40.8355 50.4805 40.7862 50.1749 40.8503L48.1661 41.3323C46.9309 41.6261 46.2889 40.9617 46.7509 39.8551L47.4952 38.0465C47.6107 37.7699 47.6146 37.3467 47.4896 37.1218L46.7641 35.5823C46.2962 34.6475 46.9547 33.7348 48.1842 33.5752L50.1944 33.3244C50.5132 33.2809 50.9545 33.0577 51.1941 32.8326L52.7545 31.4179C53.7257 30.538 54.742 30.6448 55.0607 31.6602L55.5719 33.2927C55.645 33.5507 55.9072 33.8478 56.1748 33.953L57.8779 34.594C58.9155 34.9919 58.9214 35.9744 57.8649 36.749Z" fill="url(#paint8_linear_216_800)"/>
<defs>
<linearGradient id="paint0_linear_216_800" x1="26.756" y1="5.30184" x2="3.46657" y2="84.251" gradientUnits="userSpaceOnUse">
<stop stop-color="#E3E6F0"/>
<stop offset="0.213033" stop-color="#DEDFE1"/>
<stop offset="0.366426" stop-color="white"/>
<stop offset="0.703277" stop-color="#DDE3E7"/>
<stop offset="0.845" stop-color="#A2B8C6"/>
</linearGradient>
<linearGradient id="paint1_linear_216_800" x1="85.0816" y1="-1.54217" x2="65.3989" y2="94.3603" gradientUnits="userSpaceOnUse">
<stop stop-color="#E3E6F0"/>
<stop offset="0.213033" stop-color="#DEDFE1"/>
<stop offset="0.366426" stop-color="white"/>
<stop offset="0.703277" stop-color="#DDE3E7"/>
<stop offset="0.845" stop-color="#A2B8C6"/>
</linearGradient>
<linearGradient id="paint2_linear_216_800" x1="30.5207" y1="5.30184" x2="7.23128" y2="84.251" gradientUnits="userSpaceOnUse">
<stop stop-color="#E3E6F0"/>
<stop offset="0.213033" stop-color="#DEDFE1"/>
<stop offset="0.366426" stop-color="white"/>
<stop offset="0.703277" stop-color="#DDE3E7"/>
<stop offset="0.845" stop-color="#A2B8C6"/>
</linearGradient>
<linearGradient id="paint3_linear_216_800" x1="89.5424" y1="-1.91986" x2="69.8597" y2="93.9826" gradientUnits="userSpaceOnUse">
<stop stop-color="#E3E6F0"/>
<stop offset="0.213033" stop-color="#DEDFE1"/>
<stop offset="0.366426" stop-color="white"/>
<stop offset="0.703277" stop-color="#DDE3E7"/>
<stop offset="0.845" stop-color="#A2B8C6"/>
</linearGradient>
<linearGradient id="paint4_linear_216_800" x1="34.2854" y1="5.30184" x2="10.996" y2="84.251" gradientUnits="userSpaceOnUse">
<stop stop-color="#E3E6F0"/>
<stop offset="0.213033" stop-color="#DEDFE1"/>
<stop offset="0.366426" stop-color="white"/>
<stop offset="0.703277" stop-color="#DDE3E7"/>
<stop offset="0.845" stop-color="#A2B8C6"/>
</linearGradient>
<linearGradient id="paint5_linear_216_800" x1="94.0057" y1="-2.29754" x2="74.3229" y2="93.605" gradientUnits="userSpaceOnUse">
<stop stop-color="#E3E6F0"/>
<stop offset="0.213033" stop-color="#DEDFE1"/>
<stop offset="0.366426" stop-color="white"/>
<stop offset="0.703277" stop-color="#DDE3E7"/>
<stop offset="0.845" stop-color="#A2B8C6"/>
</linearGradient>
<linearGradient id="paint6_linear_216_800" x1="47.511" y1="50.1199" x2="46.3021" y2="61.6218" gradientUnits="userSpaceOnUse">
<stop stop-color="#F4FF6C"/>
<stop offset="1" stop-color="#FABE7E"/>
</linearGradient>
<linearGradient id="paint7_linear_216_800" x1="56.7624" y1="23.2521" x2="49.5326" y2="80.5052" gradientUnits="userSpaceOnUse">
<stop stop-color="#FFAA3A"/>
<stop offset="1" stop-color="#FF0804"/>
</linearGradient>
<linearGradient id="paint8_linear_216_800" x1="53.5016" y1="25.0001" x2="50.6489" y2="64.6581" gradientUnits="userSpaceOnUse">
<stop stop-color="#FFAA3A"/>
<stop offset="1" stop-color="#FF0804"/>
</linearGradient>
</defs>
</svg>
