<svg width="96" height="94" viewBox="0 0 96 94" fill="none" xmlns="http://www.w3.org/2000/svg">
<path d="M19.828 16.1169C21.505 10.8995 26.1096 7.16824 31.5613 6.6091L45.8039 5.14832L65.4118 3.13725L86.6266 0.961369C91.43 0.468719 95.449 4.56083 94.8699 9.35452L86.9498 74.9155C85.734 84.9796 76.2767 91.9292 66.3089 90.0834L9.81927 79.6223C4.61161 78.6579 1.43519 73.3389 3.05587 68.2968L19.828 16.1169Z" fill="white"/>
<mask id="mask0_216_784" style="mask-type:alpha" maskUnits="userSpaceOnUse" x="2" y="0" width="93" height="91">
<path d="M19.828 16.1169C21.505 10.8995 26.1096 7.16824 31.5613 6.6091L44.549 5.27702L55.2157 4.18301L86.6266 0.96137C91.43 0.468719 95.449 4.56083 94.8699 9.35452L86.9498 74.9155C85.734 84.9796 76.2767 91.9292 66.3089 90.0834L9.81927 79.6223C4.61161 78.6579 1.43519 73.3389 3.05587 68.2968L19.828 16.1169Z" fill="white"/>
</mask>
<g mask="url(#mask0_216_784)">
<path d="M27.713 5.58415L24.9959 7.74191L26.1069 11.0289L23.3898 13.1867L24.5007 16.4737L21.7836 18.6314L22.8945 21.9185L20.1774 24.0762L21.2884 27.3632L18.5713 29.521L19.6822 32.808L16.9651 34.9657L18.076 38.2528L15.3589 40.4105L16.4698 43.6975L13.7527 45.8553L14.8637 49.1423L12.1466 51.3L13.2575 54.5871L10.5404 56.7448L11.6513 60.0318L8.93424 62.1896L10.0452 65.4766L7.32807 67.6343L8.439 70.9214L5.7219 73.0791L6.83283 76.3661L4.11573 78.5239L5.22667 81.8109L2.50956 83.9686" stroke="url(#paint0_linear_216_784)" stroke-width="1.2549"/>
<path d="M86.2441 -1.30358L83.2404 1.52622L84.8867 5.31039L81.8829 8.14019L83.5292 11.9244L80.5255 14.7542L82.1718 18.5383L79.1681 21.3681L80.8144 25.1523L77.8106 27.9821L79.4569 31.7662L76.4532 34.596L78.0995 38.3802L75.0958 41.21L76.7421 44.9942L73.7383 47.824L75.3847 51.6081L72.3809 54.4379L74.0272 58.2221L71.0235 61.0519L72.6698 64.8361L69.666 67.6659L71.3124 71.45L68.3086 74.2798L69.9549 78.064L66.9512 80.8938L68.5975 84.678L65.5938 87.5078L67.2401 91.2919L64.2363 94.1217" stroke="url(#paint1_linear_216_784)" stroke-width="1.49256"/>
<path d="M31.4777 5.58415L28.7606 7.74191L29.8716 11.0289L27.1545 13.1867L28.2654 16.4737L25.5483 18.6314L26.6592 21.9185L23.9421 24.0762L25.0531 27.3632L22.336 29.521L23.4469 32.808L20.7298 34.9657L21.8407 38.2528L19.1236 40.4105L20.2346 43.6975L17.5175 45.8553L18.6284 49.1423L15.9113 51.3L17.0222 54.5871L14.3051 56.7448L15.4161 60.0318L12.6989 62.1896L13.8099 65.4766L11.0928 67.6343L12.2037 70.9214L9.48661 73.0791L10.5975 76.3661L7.88044 78.5239L8.99138 81.8109L6.27427 83.9686" stroke="url(#paint2_linear_216_784)" stroke-width="1.2549"/>
<path d="M90.7049 -1.68126L87.7012 1.14854L89.3475 4.9327L86.3437 7.7625L87.9901 11.5467L84.9863 14.3765L86.6326 18.1606L83.6289 20.9904L85.2752 24.7746L82.2714 27.6044L83.9178 31.3886L80.914 34.2184L82.5603 38.0025L79.5566 40.8323L81.2029 44.6165L78.1992 47.4463L79.8455 51.2305L76.8417 54.0603L78.488 57.8444L75.4843 60.6742L77.1306 64.4584L74.1269 67.2882L75.7732 71.0724L72.7694 73.9022L74.4158 77.6863L71.412 80.5161L73.0583 84.3003L70.0546 87.1301L71.7009 90.9142L68.6971 93.744" stroke="url(#paint3_linear_216_784)" stroke-width="1.49256"/>
<path d="M35.2424 5.58415L32.5253 7.74191L33.6363 11.0289L30.9192 13.1867L32.0301 16.4737L29.313 18.6314L30.4239 21.9185L27.7068 24.0762L28.8178 27.3632L26.1007 29.521L27.2116 32.808L24.4945 34.9657L25.6054 38.2528L22.8883 40.4105L23.9993 43.6975L21.2822 45.8553L22.3931 49.1423L19.676 51.3L20.7869 54.5871L18.0698 56.7448L19.1808 60.0318L16.4637 62.1896L17.5746 65.4766L14.8575 67.6343L15.9684 70.9214L13.2513 73.0791L14.3623 76.3661L11.6451 78.5239L12.7561 81.8109L10.039 83.9686" stroke="url(#paint4_linear_216_784)" stroke-width="1.2549"/>
<path d="M95.1682 -2.05895L92.1644 0.77085L93.8107 4.55501L90.807 7.38481L92.4533 11.169L89.4496 13.9988L91.0959 17.7829L88.0921 20.6127L89.7385 24.3969L86.7347 27.2267L88.381 31.0109L85.3773 33.8407L87.0236 37.6248L84.0198 40.4546L85.6662 44.2388L82.6624 47.0686L84.3087 50.8528L81.305 53.6826L82.9513 57.4667L79.9476 60.2965L81.5939 64.0807L78.5901 66.9105L80.2364 70.6947L77.2327 73.5245L78.879 77.3086L75.8753 80.1384L77.5216 83.9226L74.5178 86.7524L76.1641 90.5366L73.1604 93.3664" stroke="url(#paint5_linear_216_784)" stroke-width="1.49256"/>
</g>
<g clip-path="url(#clip0_216_784)">
<path d="M32.6939 38.5929L34.638 55.9511C34.7762 57.0744 35.5304 59.422 36.4224 60.1185C36.6672 60.3097 36.9524 60.4659 37.2606 60.5892C38.895 61.2426 40.6969 60.5943 42.343 59.9706L45.3608 58.8272L45.0078 57.1414C44.9156 56.3926 45.1247 55.6378 45.5891 55.0431C46.0535 54.4485 46.735 54.0627 47.4839 53.9705C48.0829 53.8968 48.6858 54.0159 49.2074 54.3042C49.4685 54.4486 49.6722 54.6734 49.8499 54.9131C50.151 55.3193 50.3552 55.7891 50.4467 56.2864L50.6423 57.3501L56.529 55.1197C56.529 55.1197 57.4912 54.8594 58.1877 53.9675C58.8843 53.0755 58.817 50.9407 58.822 51.0511L57.0509 35.1644L52.4583 36.1611L52.1109 33.3377L56.0927 32.3615L55.2786 22.1886L46.6088 23.406L46.8335 25.3883C46.9256 26.1371 46.7165 26.8919 46.2521 27.4865C45.7878 28.0812 45.1062 28.467 44.3574 28.5592C43.6085 28.6513 42.8538 28.4422 42.2591 27.9778C41.6645 27.5135 41.2786 26.8319 41.1865 26.083L40.9418 24.0811L31.1962 25.8594L32.2858 36.1661L37.9934 35.0746L38.3408 37.8981L32.6939 38.5929ZM42.2287 34.5535L47.8756 33.8587L48.223 36.6822L42.5761 37.377L42.2287 34.5535Z" fill="#232323"/>
<path d="M62.2322 58.3934L69.979 42.1857C70.4694 41.1301 71.0885 38.6709 70.6889 37.5777C70.5712 37.2556 70.3909 36.9433 70.1682 36.6505C69.1027 35.2494 67.2418 34.8418 65.515 34.5003L62.185 33.8418L61.576 35.5052C61.249 36.2089 60.6559 36.7539 59.9271 37.0203C59.1983 37.2866 58.3935 37.2526 57.6898 36.9256C57.1269 36.664 56.6655 36.2321 56.3671 35.6967C56.2177 35.4286 56.1622 35.1216 56.1375 34.8158C56.0957 34.2974 56.1731 33.7763 56.3639 33.2924L56.7718 32.2577L50.4205 31.0016C50.4205 31.0016 49.4392 30.7053 48.3459 31.1049C47.2527 31.5045 46.1501 33.4043 46.2057 33.3052L39.3681 48.6661L43.6591 49.7631L42.4262 52.4164L38.4198 51.1021L33.1261 61.1293L41.8251 64.078L42.7074 62.2256C43.0344 61.5219 43.6275 60.9769 44.3563 60.7106C45.0852 60.4442 45.8899 60.4782 46.5936 60.8052C47.2973 61.1322 47.8423 61.7253 48.1087 62.4542C48.375 63.183 48.341 63.9877 48.014 64.6914L47.1385 66.5719L56.5933 71.4383L61.268 60.7335L55.6927 58.5809L56.9256 55.9276L62.2322 58.3934ZM51.7127 56.7316L46.4061 54.2657L47.6391 51.6124L52.9456 54.0783L51.7127 56.7316Z" fill="black"/>
<path d="M62.2322 58.3934L69.979 42.1857C70.4694 41.1301 71.0885 38.6709 70.6889 37.5777C70.5712 37.2556 70.3909 36.9433 70.1682 36.6505C69.1027 35.2494 67.2418 34.8418 65.515 34.5003L62.185 33.8418L61.576 35.5052C61.249 36.2089 60.6559 36.7539 59.9271 37.0203C59.1983 37.2866 58.3935 37.2526 57.6898 36.9256C57.1269 36.664 56.6655 36.2321 56.3671 35.6967C56.2177 35.4286 56.1622 35.1216 56.1375 34.8158C56.0957 34.2974 56.1731 33.7763 56.3639 33.2924L56.7718 32.2577L50.4205 31.0016C50.4205 31.0016 49.4392 30.7053 48.3459 31.1049C47.2527 31.5045 46.1501 33.4043 46.2057 33.3052L39.3681 48.6661L43.6591 49.7631L42.4262 52.4164L38.4198 51.1021L33.1261 61.1293L41.8251 64.078L42.7074 62.2256C43.0344 61.5219 43.6275 60.9769 44.3563 60.7106C45.0852 60.4442 45.8899 60.4782 46.5936 60.8052C47.2973 61.1322 47.8423 61.7253 48.1087 62.4542C48.375 63.183 48.341 63.9877 48.014 64.6914L47.1385 66.5719L56.5933 71.4383L61.268 60.7335L55.6927 58.5809L56.9256 55.9276L62.2322 58.3934ZM51.7127 56.7316L46.4061 54.2657L47.6391 51.6124L52.9456 54.0783L51.7127 56.7316Z" fill="url(#paint6_linear_216_784)"/>
</g>
<defs>
<linearGradient id="paint0_linear_216_784" x1="26.756" y1="5.30184" x2="3.46657" y2="84.251" gradientUnits="userSpaceOnUse">
<stop stop-color="#E3E6F0"/>
<stop offset="0.213033" stop-color="#DEDFE1"/>
<stop offset="0.366426" stop-color="white"/>
<stop offset="0.703277" stop-color="#DDE3E7"/>
<stop offset="0.845" stop-color="#A2B8C6"/>
</linearGradient>
<linearGradient id="paint1_linear_216_784" x1="85.0816" y1="-1.54217" x2="65.3988" y2="94.3603" gradientUnits="userSpaceOnUse">
<stop stop-color="#E3E6F0"/>
<stop offset="0.213033" stop-color="#DEDFE1"/>
<stop offset="0.366426" stop-color="white"/>
<stop offset="0.703277" stop-color="#DDE3E7"/>
<stop offset="0.845" stop-color="#A2B8C6"/>
</linearGradient>
<linearGradient id="paint2_linear_216_784" x1="30.5207" y1="5.30184" x2="7.23128" y2="84.251" gradientUnits="userSpaceOnUse">
<stop stop-color="#E3E6F0"/>
<stop offset="0.213033" stop-color="#DEDFE1"/>
<stop offset="0.366426" stop-color="white"/>
<stop offset="0.703277" stop-color="#DDE3E7"/>
<stop offset="0.845" stop-color="#A2B8C6"/>
</linearGradient>
<linearGradient id="paint3_linear_216_784" x1="89.5424" y1="-1.91986" x2="69.8597" y2="93.9826" gradientUnits="userSpaceOnUse">
<stop stop-color="#E3E6F0"/>
<stop offset="0.213033" stop-color="#DEDFE1"/>
<stop offset="0.366426" stop-color="white"/>
<stop offset="0.703277" stop-color="#DDE3E7"/>
<stop offset="0.845" stop-color="#A2B8C6"/>
</linearGradient>
<linearGradient id="paint4_linear_216_784" x1="34.2854" y1="5.30184" x2="10.996" y2="84.251" gradientUnits="userSpaceOnUse">
<stop stop-color="#E3E6F0"/>
<stop offset="0.213033" stop-color="#DEDFE1"/>
<stop offset="0.366426" stop-color="white"/>
<stop offset="0.703277" stop-color="#DDE3E7"/>
<stop offset="0.845" stop-color="#A2B8C6"/>
</linearGradient>
<linearGradient id="paint5_linear_216_784" x1="94.0057" y1="-2.29754" x2="74.3229" y2="93.605" gradientUnits="userSpaceOnUse">
<stop stop-color="#E3E6F0"/>
<stop offset="0.213033" stop-color="#DEDFE1"/>
<stop offset="0.366426" stop-color="white"/>
<stop offset="0.703277" stop-color="#DDE3E7"/>
<stop offset="0.845" stop-color="#A2B8C6"/>
</linearGradient>
<linearGradient id="paint6_linear_216_784" x1="59.6398" y1="32.452" x2="44.8449" y2="64.2915" gradientUnits="userSpaceOnUse">
<stop stop-color="#FFAA3A"/>
<stop offset="1" stop-color="#FF0804"/>
</linearGradient>
<clipPath id="clip0_216_784">
<rect width="51.3473" height="47.1162" fill="white" transform="translate(34.1758 10.7974) rotate(24.923)"/>
</clipPath>
</defs>
</svg>
