<svg width="111" height="14" viewBox="0 0 111 14" fill="none" xmlns="http://www.w3.org/2000/svg">
<path fill-rule="evenodd" clip-rule="evenodd" d="M13.9326 1.50241H2.74493C2.55157 1.5034 2.36639 1.58001 2.2297 1.71548C2.093 1.85095 2.01578 2.03437 2.01478 2.22599V11.1249C2.01606 11.3163 2.09346 11.4997 2.23006 11.635C2.36667 11.7705 2.55166 11.8471 2.74493 11.8485H13.9326V13.3558H2.74493C2.44971 13.3572 2.15721 13.3006 1.88418 13.1893C1.61124 13.0779 1.36322 12.9141 1.15449 12.7072C0.945762 12.5004 0.780512 12.2546 0.668099 11.9841C0.555776 11.7135 0.49866 11.4237 0.500024 11.1312V2.2323C0.49866 1.93973 0.555776 1.64986 0.668099 1.37938C0.780512 1.1088 0.945762 0.863013 1.15449 0.656161C1.36322 0.449308 1.61124 0.285538 1.88418 0.174225C2.15721 0.0628221 2.44971 0.00621907 2.74493 0.00757104H13.9326V1.50241ZM34.9404 0V1.50746H24.1659V5.91292H32.826V7.4329H24.1646V11.8459H34.9391V13.3534H22.6435V0H34.9404ZM57.1273 2.24349V6.1553C57.1291 6.44778 57.0718 6.73756 56.959 7.00804C56.8463 7.27844 56.6816 7.52423 56.4725 7.73099C56.2642 7.93784 56.0159 8.10161 55.743 8.21301C55.4702 8.32442 55.1773 8.3812 54.8827 8.38003H52.8254L57.0527 13.3483H55.0509L50.8418 8.38003H45.898C45.6535 8.36768 45.4097 8.34298 45.1678 8.30594V13.3483H43.6467V0.0187668H54.8708C55.1664 0.0175951 55.4584 0.0743781 55.7312 0.185781C56.005 0.297184 56.2524 0.460953 56.4616 0.667806C56.6698 0.874658 56.8353 1.12036 56.9472 1.39075C57.06 1.66124 57.1173 1.95101 57.1164 2.24349H57.1273ZM45.9031 6.86004H54.8827C54.9763 6.86122 55.0691 6.84382 55.1564 6.80876C55.2428 6.77379 55.322 6.72196 55.3883 6.65626C55.4547 6.59055 55.5066 6.51241 55.542 6.42642C55.5775 6.34034 55.5948 6.24814 55.5939 6.1553V2.24349C55.5948 2.1493 55.5775 2.05566 55.543 1.96814C55.5075 1.88062 55.4547 1.80085 55.3883 1.73352C55.3238 1.66457 55.2455 1.60986 55.1582 1.57309C55.0709 1.53623 54.9763 1.5182 54.8818 1.51991H45.9018C45.7084 1.5209 45.5233 1.59752 45.3866 1.73298C45.2499 1.86845 45.1726 2.05196 45.1716 2.24349V6.1553C45.1696 6.2494 45.1878 6.34278 45.225 6.42939C45.2621 6.51601 45.3174 6.59388 45.3871 6.65779C45.4552 6.72376 45.5359 6.77568 45.6245 6.81038C45.7131 6.84517 45.8077 6.86203 45.9031 6.86004ZM78.6368 0H65.1727V1.50746H71.158V13.3546H72.6796V1.50746H78.6368V0ZM86.7977 0V13.3483H88.3193V0H86.7977ZM110.482 0H108.535L103.525 5.91292H99.185V0H97.6507V13.3483H99.1823V7.43417H103.522L108.535 13.3483H110.5L104.851 6.67417L110.482 0Z" fill="white"/>
</svg>
