<svg width="111" height="13" viewBox="0 0 111 13" fill="none" xmlns="http://www.w3.org/2000/svg">
<path fill-rule="evenodd" clip-rule="evenodd" d="M13.0705 0V4.54522H3.64323V0H0.5V12.5H3.64323V7.95478H13.0705V12.5H16.2138V0H13.0705ZM69.6418 7.95478H60.2128V12.5H57.0696V0H60.2128V4.54522H69.6425V0H72.7857V4.54522L69.643 7.95427H72.785V12.4995H69.6418V7.95478ZM32.9762 0H19.3564V12.5H22.4996V7.95478H31.9293V12.5H35.0725V0H32.9762ZM22.4996 4.54522V3.40957H31.9293V4.54522H22.4996ZM53.9312 0V3.40957H41.3583V9.09043H53.9312V12.5H41.3583H40.3113H38.215V0H40.3113H41.3583H53.9312ZM91.6438 3.40957V0H79.0709H78.0239H75.9301V12.5H78.0239H79.0709H91.6438V9.09043H79.0709V7.95478H91.6438V4.54522H79.0709V3.40957H91.6438ZM107.357 7.95478V0H110.5V12.5H107.357L97.9295 4.54522V12.5H94.7862V0H97.9295L107.357 7.95478Z" fill="white"/>
</svg>
