<svg width="211" height="181" viewBox="0 0 211 181" fill="none" xmlns="http://www.w3.org/2000/svg">
<path d="M417.5 183.173C413.652 164.09 407.875 116.951 406.7 107.233C406.606 106.451 405.691 106.11 405.079 106.607L400.662 110.191C400.186 110.577 399.479 110.449 399.169 109.921L394.055 101.206C393.636 100.491 392.578 100.568 392.266 101.337L384.126 121.427C383.735 122.391 382.315 122.192 382.205 121.157L378.622 87.54C378.525 86.6274 377.353 86.3169 376.817 87.0616L373.756 91.3115C373.329 91.905 372.43 91.8539 372.072 91.2158L369.132 85.9663C368.831 85.428 368.118 85.2885 367.636 85.6733L361.827 90.3081L355.813 95.6768C355.231 96.1964 354.305 95.8791 354.163 95.1117L348.43 63.9351C348.245 62.9293 346.848 62.8169 346.504 63.7803L339.734 82.7768C339.484 83.4769 338.585 83.6698 338.07 83.1336L332.694 77.5341C332.257 77.0789 331.513 77.1373 331.152 77.6552L319.713 94.0804C319.647 94.175 319.598 94.2804 319.568 94.3919L308.116 136.922C307.871 137.834 306.614 137.928 306.235 137.063L301.649 126.587C301.431 126.091 300.859 125.858 300.357 126.062L294.947 128.257C294.681 128.365 294.382 128.353 294.125 128.225L291.909 127.12C291.632 126.982 291.435 126.723 291.374 126.419L288.139 110.05C287.989 109.291 287.069 108.983 286.492 109.498L286.227 109.734C285.768 110.144 285.051 110.046 284.719 109.527L283.614 107.801C283.257 107.244 282.468 107.18 282.027 107.672L279.472 110.523C278.9 111.161 277.843 110.831 277.735 109.981L273.944 80.0061C273.848 79.2435 272.963 78.8703 272.35 79.3337L266.43 83.8051C266.049 84.0929 265.518 84.0712 265.161 83.7531L259.936 79.088C259.471 78.6734 258.745 78.7794 258.418 79.3094L246.868 98.0564C246.399 98.8187 245.241 98.627 245.042 97.754L238.469 68.9052C238.345 68.3611 237.8 68.0237 237.258 68.1558L232.197 69.3878C231.787 69.4876 231.484 69.8338 231.439 70.2532L227.944 102.966C227.822 104.109 226.184 104.177 225.967 103.048L223.585 90.6433C223.569 90.5588 223.542 90.4767 223.505 90.3991L219.938 82.9696C219.906 82.9033 219.882 82.8337 219.865 82.762L217.604 72.9839C217.508 72.5661 217.156 72.2563 216.729 72.214L212.609 71.8053C212.203 71.7651 211.813 71.9756 211.624 72.3372L208.91 77.5291C208.479 78.3526 207.256 78.1949 207.049 77.2891L202.211 56.1752C202.17 55.9954 202.08 55.8304 201.95 55.6986L198.352 52.0275C198.06 51.729 197.612 51.6439 197.23 51.8143L194.006 53.2534C193.457 53.4987 192.817 53.2065 192.642 52.6305L185.739 29.8768C185.477 29.0151 184.299 28.9109 183.891 29.7134L182.39 32.661C182.148 33.1355 181.577 33.3375 181.091 33.1205L179.396 32.3638C178.822 32.1074 178.156 32.4385 178.014 33.0511L174.891 46.5259C174.749 47.1385 174.084 47.4696 173.509 47.2133L169.634 45.4834C169.051 45.2232 168.377 45.5684 168.247 46.1934L165.47 59.5825C165.45 59.6758 165.418 59.7659 165.373 59.85L159.38 71.0837C159.342 71.156 159.312 71.2327 159.293 71.3122L153.816 93.2468L151.414 102.898C151.384 103.017 151.333 103.129 151.263 103.23L148.483 107.2C148.37 107.361 148.308 107.552 148.303 107.748L147.827 126.857C147.8 127.957 146.275 128.213 145.89 127.182L143.888 121.819C143.653 121.19 142.877 120.967 142.344 121.375L140.081 123.106C139.587 123.484 138.871 123.324 138.585 122.771L131.886 109.814C131.824 109.693 131.738 109.587 131.634 109.501L124.338 103.49C124.034 103.239 123.611 103.19 123.258 103.365L118.777 105.588C118.497 105.727 118.168 105.727 117.888 105.588L113.824 103.573C113.291 103.308 112.647 103.565 112.441 104.123L99.895 138.234C99.6459 138.911 98.7836 139.11 98.2634 138.609L92.5699 133.136C92.0364 132.623 91.15 132.847 90.9244 133.552L82.9346 158.516C82.8782 158.692 82.774 158.849 82.6336 158.97L66.5464 172.783C66.1012 173.165 65.4241 173.083 65.0823 172.606L56.718 160.939C56.3262 160.393 55.5173 160.381 55.1098 160.916L46.046 172.816C45.7484 173.206 45.2112 173.323 44.7783 173.091L37.5663 169.228C36.9674 168.907 36.2297 169.265 36.1098 169.933L33.5 184.5" stroke="#5FF4AD" stroke-width="2" stroke-linecap="round" stroke-linejoin="round"/>
<path d="M417.484 182.186C413.64 163.008 407.885 117.098 406.701 107.529C406.605 106.747 405.689 106.41 405.079 106.907L400.657 110.508C400.182 110.895 399.472 110.767 399.163 110.237L394.048 101.49C393.629 100.773 392.569 100.85 392.258 101.62L384.115 121.787C383.725 122.753 382.303 122.554 382.193 121.518L378.609 87.7683C378.512 86.8547 377.338 86.5445 376.802 87.2909L373.742 91.5552C373.315 92.1505 372.414 92.0994 372.057 91.4595L369.116 86.1908C368.815 85.6509 368.1 85.5111 367.618 85.8976L361.808 90.549L355.793 95.9373C355.211 96.4586 354.283 96.1412 354.142 95.3727L348.406 64.0739C348.222 63.067 346.823 62.9549 346.48 63.9195L339.707 82.9892C339.458 83.6907 338.557 83.8837 338.042 83.3458L332.666 77.7271C332.229 77.2702 331.483 77.3287 331.122 77.8483L319.679 94.3364C319.614 94.431 319.565 94.5362 319.535 94.6474L308.079 137.342C307.834 138.255 306.575 138.349 306.197 137.482L301.609 126.967C301.392 126.469 300.818 126.236 300.316 126.44L294.907 128.643C294.64 128.751 294.339 128.74 294.082 128.611L291.866 127.501C291.589 127.363 291.392 127.104 291.332 126.8L288.095 110.365C287.945 109.605 287.024 109.296 286.446 109.814L286.184 110.049C285.725 110.46 285.006 110.362 284.674 109.842L283.569 108.109C283.213 107.551 282.421 107.487 281.98 107.981L279.426 110.84C278.855 111.48 277.796 111.151 277.688 110.299L273.896 80.2052C273.799 79.4416 272.913 79.0684 272.299 79.5333L266.38 84.0201C265.999 84.3094 265.466 84.2875 265.109 83.968L259.884 79.287C259.419 78.8707 258.691 78.9769 258.364 79.5086L246.811 98.3261C246.342 99.0901 245.182 98.8985 244.984 98.0243L238.408 69.062C238.284 68.5172 237.738 68.1794 237.196 68.3119L232.134 69.5487C231.724 69.6487 231.421 69.9949 231.377 70.4142L227.879 103.258C227.758 104.401 226.119 104.469 225.903 103.34L223.519 90.8847C223.503 90.8004 223.476 90.7185 223.439 90.6411L219.871 83.1817C219.839 83.1156 219.815 83.0461 219.798 82.9747L217.536 73.1561C217.44 72.738 217.088 72.428 216.661 72.3855L212.54 71.9754C212.134 71.9349 211.743 72.146 211.555 72.5085L208.84 77.7202C208.41 78.5453 207.185 78.3878 206.978 77.4808L202.138 56.2837C202.097 56.1041 202.007 55.9393 201.878 55.8076L198.279 52.1221C197.986 51.8223 197.537 51.7369 197.154 51.9082L193.932 53.3515C193.382 53.5979 192.741 53.3053 192.566 52.7283L185.66 29.8857C185.399 29.0226 184.219 28.9185 183.811 29.7226L182.31 32.6812C182.069 33.1569 181.497 33.3594 181.01 33.1413L179.317 32.383C178.742 32.1256 178.075 32.457 177.934 33.0706L174.809 46.6007C174.667 47.2143 174 47.5457 173.426 47.2883L169.551 45.5529C168.968 45.2916 168.293 45.6372 168.163 46.2631L165.384 59.7065C165.365 59.7996 165.332 59.8894 165.288 59.9734L159.293 71.2515C159.254 71.3236 159.225 71.4002 159.205 71.4795L153.727 93.499L151.324 103.188C151.294 103.307 151.243 103.419 151.173 103.519L148.391 107.507C148.279 107.668 148.217 107.858 148.212 108.054L147.736 127.241C147.708 128.341 146.183 128.597 145.799 127.565L143.795 122.181C143.561 121.55 142.783 121.326 142.249 121.736L139.989 123.472C139.494 123.852 138.776 123.691 138.491 123.137L131.789 110.129C131.727 110.008 131.641 109.902 131.537 109.816L124.24 103.782C123.935 103.53 123.511 103.481 123.157 103.657L118.677 105.887C118.396 106.027 118.066 106.027 117.786 105.887L113.723 103.865C113.19 103.6 112.544 103.857 112.339 104.416L99.7875 138.659C99.5388 139.338 98.6744 139.536 98.1543 139.034L92.4612 133.542C91.9278 133.027 91.0395 133.252 90.8142 133.958L82.821 159.02C82.7649 159.196 82.6611 159.353 82.5211 159.474L66.4291 173.339C65.9836 173.723 65.3045 173.641 64.9626 173.162L56.5967 161.452C56.205 160.904 55.394 160.892 54.9865 161.429L45.9207 173.373C45.6231 173.765 45.0844 173.882 44.6508 173.649L37.4241 169.764C36.8292 169.445 36.095 169.794 35.9684 170.458L33.5397 183.185H416.662C417.125 183.185 417.5 182.81 417.5 182.347C417.5 182.292 417.495 182.24 417.484 182.186Z" fill="url(#paint0_linear_216_419)"/>
<circle cx="107.5" cy="117.5" r="6.5" fill="white"/>
<circle cx="107.5" cy="117.5" r="6.5" stroke="white" stroke-width="3"/>
<circle cx="107.5" cy="117.5" r="6.5" stroke="#5FF4AD" stroke-width="3"/>
<defs>
<linearGradient id="paint0_linear_216_419" x1="132" y1="27.5" x2="131.731" y2="188.266" gradientUnits="userSpaceOnUse">
<stop stop-color="#5FF4AD" stop-opacity="0.423529"/>
<stop offset="1" stop-color="#5FF4AD" stop-opacity="0"/>
</linearGradient>
</defs>
</svg>
