<svg width="211" height="198" viewBox="0 0 211 198" fill="none" xmlns="http://www.w3.org/2000/svg">
<g filter="url(#filter0_b_216_465)">
<rect x="0.5" y="0.682617" width="210" height="196.817" rx="24" fill-opacity="0.1"/>
<rect x="1" y="1.18262" width="209" height="195.817" rx="23.5" stroke="url(#paint0_linear_216_465)"/>
</g>
<path d="M59.6745 23.1219C57.984 22.2455 55.9077 22.7606 54.8108 24.3171C40.11 45.1772 38.2678 63.787 40.0859 92.2261C38.8874 97.1336 38.2539 102.246 38.2539 107.499C38.2539 144.74 88.486 175.675 109.363 175.675C132.47 175.675 180.473 144.74 180.473 107.499C180.473 102.246 179.839 97.1336 178.641 92.2261C180.459 63.787 178.617 45.1772 163.916 24.3171C162.819 22.7606 160.743 22.2455 159.052 23.1219C146.636 29.5587 141.101 36.1435 135.647 44.826C127.516 41.7574 118.647 40.0702 109.363 40.0702C100.079 40.0702 91.2104 41.7574 83.0798 44.826C77.6257 36.1435 72.0904 29.5587 59.6745 23.1219Z" fill="url(#paint1_linear_216_465)"/>
<g style="mix-blend-mode:screen" opacity="0.67">
<ellipse cx="109.366" cy="107.45" rx="72.3099" ry="65.5347" fill="url(#paint2_linear_216_465)"/>
</g>
<path d="M161.821 120.268C161.821 142.214 138.824 160.787 109.363 160.787C79.9025 160.787 56.9053 142.214 56.9053 120.268C56.9053 98.3226 79.9025 79.749 109.363 79.749C138.824 79.749 161.821 98.3226 161.821 120.268Z" fill="#10141C" stroke="url(#paint3_linear_216_465)" stroke-width="4"/>
<g style="mix-blend-mode:screen" opacity="0.67">
<ellipse cx="50.715" cy="38.4497" rx="50.715" ry="38.4497" transform="matrix(1 0 0 -1 58.6523 159.344)" fill="url(#paint4_linear_216_465)"/>
</g>
<g opacity="0.7" filter="url(#filter1_f_216_465)">
<ellipse cx="85.3203" cy="123.451" rx="12.0977" ry="11.8315" fill="url(#paint5_linear_216_465)"/>
</g>
<g opacity="0.45" filter="url(#filter2_f_216_465)">
<ellipse cx="85.3195" cy="123.451" rx="4.71016" ry="7.00342" fill="#FFF426"/>
</g>
<g opacity="0.7" filter="url(#filter3_f_216_465)">
<ellipse cx="134.32" cy="123.451" rx="12.0977" ry="11.8315" fill="url(#paint6_linear_216_465)"/>
</g>
<g opacity="0.45" filter="url(#filter4_f_216_465)">
<ellipse cx="134.32" cy="123.451" rx="4.71016" ry="7.00342" fill="#FFF426"/>
</g>
<circle cx="1.5" cy="1.5" r="1.5" transform="matrix(-1 -8.74228e-08 -8.74228e-08 1 89.2305 110.9)" fill="#FFF236"/>
<circle cx="87.7305" cy="132.4" r="1.5" transform="rotate(-180 87.7305 132.4)" fill="#FFF236"/>
<circle cx="1.5" cy="1.5" r="1.5" transform="matrix(-1 -8.74228e-08 -8.74228e-08 1 84.2305 115.9)" fill="#FFF236"/>
<circle cx="82.7305" cy="127.4" r="1.5" transform="rotate(-180 82.7305 127.4)" fill="#FFF236"/>
<circle cx="87.7305" cy="127.4" r="1.5" transform="rotate(-180 87.7305 127.4)" fill="#FFF236"/>
<circle cx="87.7305" cy="122.4" r="1.5" transform="rotate(-180 87.7305 122.4)" fill="#FFF236"/>
<circle cx="87.7305" cy="117.4" r="1.5" transform="rotate(-180 87.7305 117.4)" fill="#FFF236"/>
<circle cx="82.7305" cy="122.4" r="1.5" transform="rotate(-180 82.7305 122.4)" fill="#FFF236"/>
<circle cx="1.5" cy="1.5" r="1.5" transform="matrix(-1 -8.74228e-08 -8.74228e-08 1 79.2305 120.9)" fill="#FFF236"/>
<circle cx="1.5" cy="1.5" r="1.5" transform="matrix(-1 -8.74228e-08 -8.74228e-08 1 94.2295 120.9)" fill="#FFF236"/>
<circle cx="1.5" cy="1.5" r="1.5" transform="matrix(-1 -8.74228e-08 -8.74228e-08 1 84.2305 110.9)" fill="#FFF236"/>
<circle cx="82.7305" cy="132.4" r="1.5" transform="rotate(-180 82.7305 132.4)" fill="#FFF236"/>
<circle cx="1.5" cy="1.5" r="1.5" transform="matrix(-1 -8.74228e-08 -8.74228e-08 1 79.2305 115.9)" fill="#FFF236"/>
<circle cx="1.5" cy="1.5" r="1.5" transform="matrix(-1 -8.74228e-08 -8.74228e-08 1 94.2295 115.9)" fill="#FFF236"/>
<circle cx="77.7305" cy="127.4" r="1.5" transform="rotate(-180 77.7305 127.4)" fill="#FFF236"/>
<circle cx="92.7295" cy="127.4" r="1.5" transform="rotate(-180 92.7295 127.4)" fill="#FFF236"/>
<circle cx="1.5" cy="1.5" r="1.5" transform="matrix(-1 -8.74228e-08 -8.74228e-08 1 137.74 110.9)" fill="#FFF236"/>
<circle cx="136.24" cy="132.4" r="1.5" transform="rotate(-180 136.24 132.4)" fill="#FFF236"/>
<circle cx="1.5" cy="1.5" r="1.5" transform="matrix(-1 -8.74228e-08 -8.74228e-08 1 132.74 115.9)" fill="#FFF236"/>
<circle cx="131.24" cy="127.4" r="1.5" transform="rotate(-180 131.24 127.4)" fill="#FFF236"/>
<circle cx="136.24" cy="127.4" r="1.5" transform="rotate(-180 136.24 127.4)" fill="#FFF236"/>
<circle cx="136.24" cy="122.4" r="1.5" transform="rotate(-180 136.24 122.4)" fill="#FFF236"/>
<circle cx="136.24" cy="117.4" r="1.5" transform="rotate(-180 136.24 117.4)" fill="#FFF236"/>
<circle cx="131.24" cy="122.4" r="1.5" transform="rotate(-180 131.24 122.4)" fill="#FFF236"/>
<circle cx="1.5" cy="1.5" r="1.5" transform="matrix(-1 -8.74228e-08 -8.74228e-08 1 127.74 120.9)" fill="#FFF236"/>
<circle cx="1.5" cy="1.5" r="1.5" transform="matrix(-1 -8.74228e-08 -8.74228e-08 1 142.739 120.9)" fill="#FFF236"/>
<circle cx="1.5" cy="1.5" r="1.5" transform="matrix(-1 -8.74228e-08 -8.74228e-08 1 132.74 110.9)" fill="#FFF236"/>
<circle cx="131.24" cy="132.4" r="1.5" transform="rotate(-180 131.24 132.4)" fill="#FFF236"/>
<circle cx="1.5" cy="1.5" r="1.5" transform="matrix(-1 -8.74228e-08 -8.74228e-08 1 127.74 115.9)" fill="#FFF236"/>
<circle cx="1.5" cy="1.5" r="1.5" transform="matrix(-1 -8.74228e-08 -8.74228e-08 1 142.739 115.9)" fill="#FFF236"/>
<circle cx="126.24" cy="127.4" r="1.5" transform="rotate(-180 126.24 127.4)" fill="#FFF236"/>
<circle cx="141.239" cy="127.4" r="1.5" transform="rotate(-180 141.239 127.4)" fill="#FFF236"/>
<defs>
<filter id="filter0_b_216_465" x="-63.1" y="-62.9174" width="337.2" height="324.017" filterUnits="userSpaceOnUse" color-interpolation-filters="sRGB">
<feFlood flood-opacity="0" result="BackgroundImageFix"/>
<feGaussianBlur in="BackgroundImageFix" stdDeviation="31.8"/>
<feComposite in2="SourceAlpha" operator="in" result="effect1_backgroundBlur_216_465"/>
<feBlend mode="normal" in="SourceGraphic" in2="effect1_backgroundBlur_216_465" result="shape"/>
</filter>
<filter id="filter1_f_216_465" x="50.1227" y="88.5191" width="70.3953" height="69.8631" filterUnits="userSpaceOnUse" color-interpolation-filters="sRGB">
<feFlood flood-opacity="0" result="BackgroundImageFix"/>
<feBlend mode="normal" in="SourceGraphic" in2="BackgroundImageFix" result="shape"/>
<feGaussianBlur stdDeviation="11.55" result="effect1_foregroundBlur_216_465"/>
</filter>
<filter id="filter2_f_216_465" x="72.6094" y="108.447" width="25.4199" height="30.0068" filterUnits="userSpaceOnUse" color-interpolation-filters="sRGB">
<feFlood flood-opacity="0" result="BackgroundImageFix"/>
<feBlend mode="normal" in="SourceGraphic" in2="BackgroundImageFix" result="shape"/>
<feGaussianBlur stdDeviation="4" result="effect1_foregroundBlur_216_465"/>
</filter>
<filter id="filter3_f_216_465" x="99.1227" y="88.5191" width="70.3953" height="69.8631" filterUnits="userSpaceOnUse" color-interpolation-filters="sRGB">
<feFlood flood-opacity="0" result="BackgroundImageFix"/>
<feBlend mode="normal" in="SourceGraphic" in2="BackgroundImageFix" result="shape"/>
<feGaussianBlur stdDeviation="11.55" result="effect1_foregroundBlur_216_465"/>
</filter>
<filter id="filter4_f_216_465" x="121.609" y="108.447" width="25.4199" height="30.0068" filterUnits="userSpaceOnUse" color-interpolation-filters="sRGB">
<feFlood flood-opacity="0" result="BackgroundImageFix"/>
<feBlend mode="normal" in="SourceGraphic" in2="BackgroundImageFix" result="shape"/>
<feGaussianBlur stdDeviation="4" result="effect1_foregroundBlur_216_465"/>
</filter>
<linearGradient id="paint0_linear_216_465" x1="14" y1="12.1636" x2="118.772" y2="189.666" gradientUnits="userSpaceOnUse">
<stop stop-color="white" stop-opacity="0.15"/>
<stop offset="1" stop-color="#999999" stop-opacity="0"/>
</linearGradient>
<linearGradient id="paint1_linear_216_465" x1="38.2539" y1="99.1859" x2="180.473" y2="99.1859" gradientUnits="userSpaceOnUse">
<stop stop-color="#FF8623"/>
<stop offset="1" stop-color="#FFE946"/>
</linearGradient>
<linearGradient id="paint2_linear_216_465" x1="109.366" y1="41.915" x2="109.366" y2="78.2682" gradientUnits="userSpaceOnUse">
<stop stop-color="#FFE37E"/>
<stop offset="1" stop-color="#FF8F26" stop-opacity="0"/>
</linearGradient>
<linearGradient id="paint3_linear_216_465" x1="109.363" y1="77.749" x2="109.363" y2="162.787" gradientUnits="userSpaceOnUse">
<stop offset="0.196135" stop-color="#10141C"/>
<stop offset="1" stop-color="#FFE360"/>
</linearGradient>
<linearGradient id="paint4_linear_216_465" x1="50.715" y1="76.8994" x2="50.715" y2="21.3287" gradientUnits="userSpaceOnUse">
<stop stop-color="#222834"/>
<stop offset="1" stop-color="#1A202D" stop-opacity="0"/>
</linearGradient>
<linearGradient id="paint5_linear_216_465" x1="85.3203" y1="111.619" x2="85.3203" y2="135.282" gradientUnits="userSpaceOnUse">
<stop stop-color="#F28323"/>
<stop offset="1" stop-color="#F66C0A"/>
</linearGradient>
<linearGradient id="paint6_linear_216_465" x1="134.32" y1="111.619" x2="134.32" y2="135.282" gradientUnits="userSpaceOnUse">
<stop stop-color="#F28323"/>
<stop offset="1" stop-color="#F66C0A"/>
</linearGradient>
</defs>
</svg>
