<svg width="16" height="18" viewBox="0 0 16 18" fill="none" xmlns="http://www.w3.org/2000/svg">
<g opacity="0.4">
<ellipse opacity="0.4" cx="2.23644" cy="1.3855" rx="1.42626" ry="1.3855" fill="black"/>
<ellipse opacity="0.4" cx="1.42626" cy="1.3855" rx="1.42626" ry="1.3855" transform="matrix(1 0 0 -1 0.810303 17.5503)" fill="black"/>
<ellipse opacity="0.4" cx="6.03941" cy="5.08033" rx="1.42626" ry="1.3855" fill="black"/>
<ellipse opacity="0.4" cx="1.42626" cy="1.3855" rx="1.42626" ry="1.3855" transform="matrix(1 0 0 -1 4.61316 13.8555)" fill="black"/>
<ellipse opacity="0.4" cx="9.84313" cy="8.77515" rx="1.42626" ry="1.3855" fill="black"/>
<ellipse opacity="0.4" cx="6.03941" cy="1.3855" rx="1.42626" ry="1.3855" fill="black"/>
<ellipse opacity="0.4" cx="1.42626" cy="1.3855" rx="1.42626" ry="1.3855" transform="matrix(1 0 0 -1 4.61316 17.5503)" fill="black"/>
<ellipse opacity="0.4" cx="9.84313" cy="5.08033" rx="1.42626" ry="1.3855" fill="black"/>
<ellipse opacity="0.4" cx="1.42626" cy="1.3855" rx="1.42626" ry="1.3855" transform="matrix(1 0 0 -1 8.41687 13.8555)" fill="black"/>
<ellipse opacity="0.4" cx="13.646" cy="8.77515" rx="1.42626" ry="1.3855" fill="black"/>
</g>
</svg>
