<svg width="15" height="18" viewBox="0 0 15 18" fill="none" xmlns="http://www.w3.org/2000/svg">
<g opacity="0.2">
<ellipse opacity="0.4" cx="1.66417" cy="1.3855" rx="1.42626" ry="1.3855" fill="black"/>
<ellipse opacity="0.4" cx="1.42626" cy="1.3855" rx="1.42626" ry="1.3855" transform="matrix(1 0 0 -1 0.237915 17.5503)" fill="black"/>
<ellipse opacity="0.4" cx="5.46715" cy="5.08033" rx="1.42626" ry="1.3855" fill="black"/>
<ellipse opacity="0.4" cx="1.42626" cy="1.3855" rx="1.42626" ry="1.3855" transform="matrix(1 0 0 -1 4.04089 13.8555)" fill="black"/>
<ellipse opacity="0.4" cx="9.27074" cy="8.77515" rx="1.42626" ry="1.3855" fill="black"/>
<ellipse opacity="0.4" cx="5.46715" cy="1.3855" rx="1.42626" ry="1.3855" fill="black"/>
<ellipse opacity="0.4" cx="1.42626" cy="1.3855" rx="1.42626" ry="1.3855" transform="matrix(1 0 0 -1 4.04089 17.5503)" fill="black"/>
<ellipse opacity="0.4" cx="9.27074" cy="5.08033" rx="1.42626" ry="1.3855" fill="black"/>
<ellipse opacity="0.4" cx="1.42626" cy="1.3855" rx="1.42626" ry="1.3855" transform="matrix(1 0 0 -1 7.84448 13.8555)" fill="black"/>
<ellipse opacity="0.4" cx="13.0736" cy="8.77515" rx="1.42626" ry="1.3855" fill="black"/>
</g>
</svg>
