<svg width="15" height="18" viewBox="0 0 15 18" fill="none" xmlns="http://www.w3.org/2000/svg">
<ellipse opacity="0.4" cx="1.8087" cy="1.3855" rx="1.42626" ry="1.3855" fill="black"/>
<ellipse opacity="0.4" cx="1.42626" cy="1.3855" rx="1.42626" ry="1.3855" transform="matrix(1 0 0 -1 0.38269 17.5503)" fill="black"/>
<ellipse opacity="0.4" cx="5.6118" cy="5.08033" rx="1.42626" ry="1.3855" fill="black"/>
<ellipse opacity="0.4" cx="1.42626" cy="1.3855" rx="1.42626" ry="1.3855" transform="matrix(1 0 0 -1 4.18555 13.8555)" fill="black"/>
<ellipse opacity="0.4" cx="9.41551" cy="8.77515" rx="1.42626" ry="1.3855" fill="black"/>
<ellipse opacity="0.4" cx="5.6118" cy="1.3855" rx="1.42626" ry="1.3855" fill="black"/>
<ellipse opacity="0.4" cx="1.42626" cy="1.3855" rx="1.42626" ry="1.3855" transform="matrix(1 0 0 -1 4.18555 17.5503)" fill="black"/>
<ellipse opacity="0.4" cx="9.41551" cy="5.08033" rx="1.42626" ry="1.3855" fill="black"/>
<ellipse opacity="0.4" cx="1.42626" cy="1.3855" rx="1.42626" ry="1.3855" transform="matrix(1 0 0 -1 7.98926 13.8555)" fill="black"/>
<ellipse opacity="0.4" cx="13.2184" cy="8.77515" rx="1.42626" ry="1.3855" fill="black"/>
</svg>
