<svg width="36" height="36" viewBox="0 0 36 36" fill="none" xmlns="http://www.w3.org/2000/svg">
<g opacity="0.5">
<circle cx="24.5" cy="26.0742" r="1.5" transform="rotate(180 24.5 26.0742)" fill="#F4C770"/>
<circle cx="1.5" cy="1.5" r="1.5" transform="matrix(-1 0 0 1 26 8.57422)" fill="#F4C770"/>
<circle cx="20.5" cy="22.0742" r="1.5" transform="rotate(180 20.5 22.0742)" fill="#F4C770"/>
<circle cx="1.5" cy="1.5" r="1.5" transform="matrix(-1 0 0 1 22 12.5742)" fill="#F4C770"/>
<circle cx="1.5" cy="1.5" r="1.5" transform="matrix(-1 0 0 1 26 12.5742)" fill="#F4C770"/>
<circle cx="1.5" cy="1.5" r="1.5" transform="matrix(-1 0 0 1 26 16.5742)" fill="#F4C770"/>
<circle cx="1.5" cy="1.5" r="1.5" transform="matrix(-1 0 0 1 26 20.5742)" fill="#F4C770"/>
<circle cx="1.5" cy="1.5" r="1.5" transform="matrix(-1 0 0 1 22 16.5742)" fill="#F4C770"/>
<circle cx="16.5" cy="18.0742" r="1.5" transform="rotate(180 16.5 18.0742)" fill="#F4C770"/>
<circle cx="20.5" cy="26.0742" r="1.5" transform="rotate(180 20.5 26.0742)" fill="#F4C770"/>
<circle cx="1.5" cy="1.5" r="1.5" transform="matrix(-1 0 0 1 22 8.57422)" fill="#F4C770"/>
<circle cx="16.5" cy="22.0742" r="1.5" transform="rotate(180 16.5 22.0742)" fill="#F4C770"/>
<circle cx="1.5" cy="1.5" r="1.5" transform="matrix(-1 0 0 1 18 12.5742)" fill="#F4C770"/>
<circle cx="12.5" cy="18.0742" r="1.5" transform="rotate(180 12.5 18.0742)" fill="#F4C770"/>
<g opacity="0.45" filter="url(#filter0_f_216_592)">
<rect x="22" y="14.5742" width="7" height="8" transform="rotate(90 22 14.5742)" stroke="url(#paint0_linear_216_592)" stroke-width="8" stroke-linecap="round"/>
</g>
</g>
<defs>
<filter id="filter0_f_216_592" x="0" y="0.574219" width="36" height="35" filterUnits="userSpaceOnUse" color-interpolation-filters="sRGB">
<feFlood flood-opacity="0" result="BackgroundImageFix"/>
<feBlend mode="normal" in="SourceGraphic" in2="BackgroundImageFix" result="shape"/>
<feGaussianBlur stdDeviation="5" result="effect1_foregroundBlur_216_592"/>
</filter>
<linearGradient id="paint0_linear_216_592" x1="29" y1="30.4992" x2="29" y2="14.5742" gradientUnits="userSpaceOnUse">
<stop stop-color="#FFBF7A" stop-opacity="0"/>
<stop offset="1" stop-color="#FF982B"/>
</linearGradient>
</defs>
</svg>
