<svg width="391" height="145" viewBox="0 0 391 145" fill="none" xmlns="http://www.w3.org/2000/svg">
<rect width="2007.4" height="41.6234" transform="translate(-577.75 102.701) rotate(-2.90996)" fill="url(#paint0_linear_218_4174)"/>
<path d="M-69.4529 90.2247L-65.6029 90.029L-64.8938 103.979L-68.7438 104.174L-69.4529 90.2247ZM-58.4793 89.6669L-54.6106 89.4703L-53.9015 103.42L-57.7702 103.616L-58.4793 89.6669ZM-67.0335 95.2671L-56.6179 94.7377L-56.4439 98.1599L-66.8595 98.6894L-67.0335 95.2671ZM-48.7094 100.471L-48.8673 97.3646L-39.2514 96.8758L-39.0935 99.9819L-48.7094 100.471ZM-41.8612 88.8222L-34.8097 102.449L-38.9202 102.658L-44.8655 90.6159L-43.7495 90.5592L-48.4617 103.143L-52.5721 103.352L-46.9388 89.0803L-41.8612 88.8222ZM-19.1277 95.7969C-19.2017 97.0314 -19.5684 98.1316 -20.2279 99.0975C-20.8881 100.051 -21.7818 100.811 -22.9091 101.378C-24.024 101.945 -25.3255 102.266 -26.8134 102.341C-28.4378 102.424 -29.873 102.192 -31.119 101.646C-32.365 101.101 -33.3568 100.299 -34.0942 99.2429C-34.8193 98.1858 -35.2187 96.9318 -35.2924 95.4811C-35.3662 94.0303 -35.096 92.7424 -34.4819 91.6172C-33.8554 90.4913 -32.95 89.5937 -31.7657 88.9244C-30.5814 88.255 -29.1771 87.8791 -27.5528 87.7965C-26.0648 87.7209 -24.7375 87.9083 -23.5709 88.3587C-22.3919 88.8084 -21.4254 89.4803 -20.6713 90.3744C-19.9179 91.256 -19.4418 92.3071 -19.243 93.5278L-23.1117 93.7244C-23.2659 93.1355 -23.5333 92.6457 -23.9137 92.2547C-24.2947 91.8514 -24.7822 91.553 -25.3764 91.3594C-25.9581 91.1652 -26.6271 91.0874 -27.3835 91.1258C-28.2515 91.1699 -28.9935 91.3693 -29.6095 91.7238C-30.2261 92.0659 -30.6867 92.5431 -30.9912 93.1553C-31.2964 93.7551 -31.4281 94.4642 -31.3865 95.2825C-31.3449 96.1009 -31.1416 96.7992 -30.7766 97.3773C-30.4122 97.9431 -29.9056 98.3711 -29.2568 98.6614C-28.6087 98.9392 -27.8506 99.0561 -26.9827 99.0119C-26.2263 98.9735 -25.5683 98.8344 -25.0086 98.5946C-24.4365 98.3542 -23.9814 98.014 -23.6433 97.5742C-23.3051 97.1343 -23.0895 96.6074 -22.9964 95.9935L-19.1277 95.7969ZM-16.9598 101.542L-17.6689 87.5925L-13.8374 87.3977L-13.2844 98.2783L-14.348 97.5306L-6.95568 87.0479L-2.88241 86.8408L-13.4818 101.365L-16.9598 101.542ZM-10.6397 94.5449L-7.93175 92.0577L-1.98734 100.781L-6.35819 101.003L-10.6397 94.5449ZM6.67695 88.0518L10.5456 87.8552L11.1687 100.112L7.3 100.309L6.67695 88.0518ZM1.2715 86.6297L15.779 85.8922L15.953 89.3145L1.44546 90.052L1.2715 86.6297ZM17.441 85.8078L21.2911 85.612L22.0002 99.5616L18.1501 99.7573L17.441 85.8078ZM28.4147 85.2499L32.2833 85.0533L32.9924 99.0028L29.1238 99.1995L28.4147 85.2499ZM19.8605 90.8501L30.2761 90.3207L30.4501 93.7429L20.0344 94.2724L19.8605 90.8501ZM47.1019 89.8943L47.2438 92.6842L37.0327 93.2032L36.8909 90.4133L47.1019 89.8943ZM39.5843 91.675L38.9575 97.3197L37.3063 95.6508L47.9823 95.1081L48.1412 98.2328L35.1774 98.8918L35.883 91.8631L34.4683 84.9422L47.3391 84.288L47.4979 87.4127L36.9149 87.9506L38.3884 86.1229L39.5843 91.675ZM56.4453 89.5499L66.5634 89.0355L66.7288 92.2904L56.6108 92.8047L56.4453 89.5499ZM66.6265 83.3076L66.792 86.5624L56.4507 87.0881L58.1984 85.1532L58.8357 97.6892L54.9856 97.8849L54.2765 83.9353L66.6265 83.3076ZM72.6821 90.7384C72.7142 91.3708 72.8601 91.9166 73.1196 92.3758C73.3909 92.822 73.7685 93.1571 74.2523 93.3811C74.7485 93.6045 75.3438 93.6986 76.0381 93.6633C76.7449 93.6274 77.3276 93.4734 77.7862 93.2015C78.2447 92.9296 78.5802 92.5582 78.7924 92.0874C79.0041 91.6043 79.0938 91.0465 79.0617 90.4141L78.6693 82.6954L82.538 82.4987L82.9398 90.4035C83.0047 91.6806 82.7639 92.8117 82.2172 93.7967C81.6823 94.7687 80.9015 95.5481 79.8746 96.1349C78.8471 96.7092 77.6266 97.0323 76.213 97.1042C74.8119 97.1754 73.5649 96.9777 72.472 96.5112C71.391 96.0316 70.5289 95.3357 69.8858 94.4236C69.2545 93.4984 68.9064 92.3973 68.8415 91.1201L68.4397 83.2154L72.2897 83.0197L72.6821 90.7384ZM89.4115 83.8463L93.2802 83.6496L93.9032 95.9066L90.0345 96.1033L89.4115 83.8463ZM84.006 82.4241L98.5135 81.6867L98.6875 85.109L84.18 85.8464L84.006 82.4241ZM104.232 89.1347C104.264 89.7671 104.41 90.3129 104.67 90.7721C104.941 91.2182 105.318 91.5533 105.802 91.7774C106.298 92.0008 106.894 92.0949 107.588 92.0596C108.295 92.0236 108.877 91.8697 109.336 91.5978C109.795 91.3258 110.13 90.9545 110.342 90.4837C110.554 90.0005 110.644 89.4428 110.612 88.8104L110.219 81.0916L114.088 80.895L114.49 88.7997C114.555 90.0769 114.314 91.208 113.767 92.193C113.232 93.165 112.451 93.9444 111.425 94.5311C110.397 95.1055 109.177 95.4286 107.763 95.5004C106.362 95.5717 105.115 95.374 104.022 94.9074C102.941 94.4278 102.079 93.7319 101.436 92.8198C100.804 91.8947 100.456 90.7935 100.391 89.5164L99.9896 81.6116L103.84 81.4159L104.232 89.1347ZM119.474 86.7376L124.552 86.4794C125.172 86.4479 125.648 86.2808 125.981 85.9779C126.314 85.6751 126.467 85.2695 126.441 84.7611C126.415 84.2403 126.221 83.8523 125.86 83.5972C125.498 83.3297 125.007 83.2116 124.387 83.2432L118.77 83.5287L120.407 81.5994L121.064 94.526L117.214 94.7217L116.505 80.7722L124.781 80.3514C125.848 80.2972 126.787 80.4422 127.6 80.7862C128.413 81.1178 129.059 81.6071 129.54 82.254C130.02 82.8885 130.282 83.6583 130.329 84.5635C130.373 85.4439 130.189 86.2302 129.777 86.9224C129.365 87.6147 128.771 88.167 127.997 88.5793C127.222 88.9917 126.301 89.2249 125.235 89.2791L119.618 89.5647L119.474 86.7376ZM121.625 87.9522L125.958 87.7319L131.293 94.006L126.829 94.2329L121.625 87.9522ZM144.513 84.9427L144.654 87.7326L134.443 88.2516L134.302 85.4617L144.513 84.9427ZM136.995 86.7234L136.368 92.3681L134.717 90.6992L145.393 90.1565L145.552 93.2812L132.588 93.9402L133.294 86.9115L131.879 79.9906L144.75 79.3364L144.909 82.4611L134.325 82.9991L135.799 81.1713L136.995 86.7234Z" fill="#10141C"/>
<path d="M175.557 77.7706C176.723 77.7113 177.737 77.8587 178.6 78.2126C179.476 78.5659 180.156 79.097 180.639 79.8059C181.122 80.5023 181.388 81.3342 181.437 82.3013C181.486 83.2561 181.306 84.1106 180.896 84.8649C180.487 85.6068 179.864 86.1978 179.029 86.6381C178.206 87.0777 177.211 87.3272 176.046 87.3864L170.001 87.6937L169.844 84.6062L175.647 84.3112C176.267 84.2797 176.743 84.1063 177.075 83.7911C177.407 83.4635 177.559 83.0331 177.532 82.4999C177.504 81.9543 177.309 81.5415 176.947 81.2616C176.584 80.9692 176.092 80.8388 175.472 80.8704L170.004 81.1483L171.643 79.2748L172.286 91.9224L168.436 92.1181L167.727 78.1686L175.557 77.7706ZM185.845 83.364L190.922 83.1059C191.542 83.0744 192.019 82.9072 192.351 82.6043C192.684 82.3015 192.838 81.8959 192.812 81.3875C192.785 80.8667 192.591 80.4788 192.23 80.2236C191.869 79.9561 191.378 79.8381 190.758 79.8696L185.141 80.1551L186.777 78.2258L187.434 91.1524L183.584 91.3481L182.875 77.3986L191.152 76.9779C192.218 76.9236 193.158 77.0686 193.971 77.4126C194.783 77.7443 195.43 78.2335 195.91 78.8804C196.39 79.5149 196.653 80.2847 196.699 81.1899C196.744 82.0703 196.56 82.8566 196.148 83.5489C195.735 84.2411 195.142 84.7934 194.367 85.2058C193.592 85.6181 192.672 85.8513 191.605 85.9056L185.988 86.1911L185.845 83.364ZM187.995 84.5786L192.329 84.3584L197.664 90.6324L193.2 90.8593L187.995 84.5786ZM210.883 81.5691L211.025 84.359L200.814 84.8781L200.672 82.0882L210.883 81.5691ZM203.365 83.3498L202.739 88.9945L201.087 87.3256L211.763 86.7829L211.922 89.9076L198.958 90.5666L199.664 83.5379L198.249 76.6171L211.12 75.9628L211.279 79.0875L200.696 79.6255L202.169 77.7977L203.365 83.3498ZM220.4 75.4911C222.049 75.4073 223.509 75.6252 224.778 76.145C226.06 76.6517 227.068 77.4147 227.804 78.434C228.551 79.4403 228.96 80.644 229.031 82.0451C229.103 83.4463 228.818 84.6915 228.177 85.7808C227.548 86.857 226.622 87.7183 225.399 88.3648C224.189 88.9982 222.758 89.3568 221.109 89.4406L214.153 89.7942L213.444 75.8447L220.4 75.4911ZM217.902 87.9813L215.969 86.2708L221.233 86.0032C222.064 85.961 222.776 85.7818 223.369 85.4658C223.974 85.1367 224.43 84.697 224.738 84.1468C225.045 83.5966 225.181 82.9619 225.144 82.2427C225.107 81.5112 224.908 80.8935 224.547 80.3897C224.185 79.8736 223.686 79.4886 223.052 79.235C222.429 78.9683 221.703 78.856 220.872 78.8982L215.608 79.1658L217.358 77.2681L217.902 87.9813ZM230.663 74.9694L234.513 74.7737L235.222 88.7232L231.372 88.9189L230.663 74.9694ZM253.017 81.9634C252.943 83.1979 252.576 84.2981 251.916 85.264C251.256 86.2175 250.362 86.9777 249.235 87.5447C248.12 88.1111 246.819 88.4321 245.331 88.5078C243.706 88.5903 242.271 88.3587 241.025 87.8129C239.779 87.2671 238.787 86.4659 238.05 85.4094C237.325 84.3523 236.926 83.0984 236.852 81.6476C236.778 80.1969 237.048 78.9089 237.662 77.7837C238.289 76.6579 239.194 75.7603 240.379 75.0909C241.563 74.4216 242.967 74.0456 244.591 73.963C246.079 73.8874 247.407 74.0748 248.573 74.5252C249.752 74.9749 250.719 75.6469 251.473 76.5409C252.226 77.4225 252.702 78.4737 252.901 79.6943L249.033 79.8909C248.878 79.3021 248.611 78.8122 248.231 78.4213C247.85 78.018 247.362 77.7195 246.768 77.526C246.186 77.3318 245.517 77.2539 244.761 77.2923C243.893 77.3365 243.151 77.5358 242.535 77.8903C241.918 78.2324 241.458 78.7096 241.153 79.3218C240.848 79.9216 240.716 80.6307 240.758 81.4491C240.799 82.2674 241.003 82.9657 241.368 83.5439C241.732 84.1096 242.239 84.5376 242.887 84.8279C243.536 85.1057 244.294 85.2226 245.162 85.1785C245.918 85.14 246.576 85.0009 247.136 84.7611C247.708 84.5207 248.163 84.1806 248.501 83.7407C248.839 83.3008 249.055 82.774 249.148 82.1601L253.017 81.9634ZM258.405 75.2561L262.274 75.0595L262.897 87.3165L259.028 87.5131L258.405 75.2561ZM253 73.834L267.508 73.0965L267.681 76.5188L253.174 77.2563L253 73.834ZM277.052 72.6114L277.674 84.8498L275.857 83.2265L286.292 82.6962L286.465 86.1184L273.911 86.7566L273.202 72.8071L277.052 72.6114ZM287.406 72.0851L291.256 71.8894L291.965 85.8389L288.115 86.0346L287.406 72.0851ZM294.563 85.7068L293.854 71.7573L297.685 71.5625L298.238 82.4432L297.175 81.6954L304.567 71.2127L308.64 71.0057L298.041 85.53L294.563 85.7068ZM300.883 78.7098L303.591 76.2226L309.535 84.9458L305.164 85.1679L300.883 78.7098ZM322.243 75.9084L322.385 78.6983L312.174 79.2174L312.032 76.4275L322.243 75.9084ZM314.726 77.6891L314.099 83.3339L312.447 81.665L323.124 81.1223L323.282 84.247L310.319 84.9059L311.024 77.8773L309.61 70.9564L322.48 70.3022L322.639 73.4269L312.056 73.9648L313.53 72.137L314.726 77.6891ZM332.052 81.1159L331.894 78.0098L341.51 77.521L341.668 80.6271L332.052 81.1159ZM338.9 69.4675L345.952 83.0946L341.841 83.3036L335.896 71.2612L337.012 71.2044L332.3 83.7886L328.19 83.9975L333.823 69.7256L338.9 69.4675ZM360.334 75.5199L360.614 74.7785C361.694 74.7484 362.589 74.8708 363.299 75.1455C364.021 75.4071 364.569 75.8019 364.944 76.3299C365.318 76.8454 365.523 77.4566 365.559 78.1633C365.598 78.9197 365.459 79.6043 365.142 80.2171C364.824 80.8176 364.327 81.309 363.65 81.6915C362.985 82.061 362.138 82.2718 361.109 82.3242L350.805 82.8479L351.52 75.6323L350.096 68.8984L360.028 68.3935C361.317 68.328 362.337 68.5807 363.087 69.1517C363.837 69.7104 364.239 70.5229 364.293 71.5892C364.322 72.172 364.214 72.7369 363.969 73.284C363.723 73.831 363.306 74.306 362.717 74.7088C362.14 75.0987 361.346 75.3691 360.334 75.5199ZM354.572 81.7613L352.993 80.0328L359.93 79.6802C360.488 79.6518 360.915 79.4934 361.211 79.2048C361.508 78.9163 361.643 78.5302 361.619 78.0466C361.594 77.563 361.407 77.1872 361.058 76.919C360.708 76.6384 360.205 76.5148 359.547 76.5482L353.819 76.8394L353.685 74.1983L358.892 73.9336C359.339 73.9109 359.704 73.7618 359.988 73.4863C360.285 73.1977 360.421 72.8241 360.398 72.3653C360.379 71.9933 360.233 71.6961 359.961 71.4738C359.688 71.239 359.309 71.1339 358.826 71.1585L352.576 71.4762L353.954 69.5974L355.202 75.4451L354.572 81.7613ZM375.276 81.9024C373.627 81.9862 372.161 81.7562 370.877 81.2122C369.607 80.6677 368.596 79.8675 367.846 78.8116C367.109 77.7551 366.703 76.5015 366.63 75.0507C366.556 73.6 366.832 72.3117 367.459 71.1859C368.098 70.0594 369.022 69.1609 370.231 68.4903C371.452 67.819 372.888 67.4415 374.537 67.3577C376.198 67.2732 377.664 67.5032 378.935 68.0478C380.206 68.5923 381.216 69.3926 381.966 70.4484C382.716 71.5043 383.128 72.7576 383.202 74.2084C383.275 75.6591 382.993 76.9477 382.354 78.0742C381.715 79.2006 380.791 80.0992 379.582 80.7698C378.373 81.4404 376.938 81.8179 375.276 81.9024ZM375.101 78.4615C376.006 78.4155 376.78 78.2208 377.421 77.8774C378.062 77.534 378.542 77.0683 378.86 76.4802C379.191 75.8916 379.336 75.2005 379.296 74.4069C379.256 73.6133 379.041 72.9405 378.652 72.3884C378.276 71.8356 377.752 71.421 377.079 71.1444C376.406 70.8678 375.617 70.7525 374.712 70.7985C373.819 70.8439 373.052 71.0383 372.41 71.3817C371.769 71.7251 371.283 72.1911 370.952 72.7798C370.622 73.3685 370.477 74.0596 370.517 74.8531C370.557 75.6467 370.772 76.3196 371.16 76.8717C371.549 77.4238 372.08 77.8381 372.753 78.1147C373.426 78.3913 374.208 78.5069 375.101 78.4615ZM384.679 76.5388L388.603 76.3393C388.685 76.7205 388.881 77.0462 389.193 77.3163C389.506 77.5863 389.914 77.7893 390.418 77.9253C390.934 78.0483 391.533 78.0924 392.215 78.0578C393.157 78.0099 393.895 77.8542 394.429 77.5909C394.962 77.3152 395.216 76.9417 395.192 76.4706C395.174 76.111 395.005 75.8399 394.685 75.6572C394.365 75.4746 393.762 75.3622 392.877 75.3202L390.261 75.2108C388.33 75.1349 386.913 74.7718 386.01 74.1215C385.106 73.4589 384.624 72.5324 384.564 71.342C384.514 70.3748 384.752 69.5423 385.276 68.8443C385.812 68.1458 386.58 67.6033 387.58 67.2168C388.591 66.8173 389.779 66.5829 391.143 66.5135C392.482 66.4455 393.682 66.5771 394.743 66.9086C395.804 67.2276 396.656 67.7189 397.298 68.3824C397.954 69.0452 398.33 69.8342 398.426 70.7493L394.52 70.9478C394.453 70.6155 394.278 70.3385 393.993 70.1168C393.72 69.8821 393.351 69.7143 392.886 69.6137C392.42 69.5006 391.865 69.4604 391.22 69.4932C390.352 69.5373 389.67 69.6901 389.173 69.9515C388.676 70.2006 388.439 70.5483 388.462 70.9947C388.478 71.3171 388.64 71.5699 388.948 71.7532C389.268 71.9358 389.827 72.0441 390.624 72.0782L393.41 72.2163C394.743 72.2729 395.814 72.436 396.623 72.7056C397.432 72.9629 398.03 73.349 398.416 73.8639C398.803 74.3788 399.016 75.033 399.057 75.8266C399.107 76.8061 398.859 77.6765 398.313 78.4377C397.767 79.1865 396.977 79.7923 395.944 80.2551C394.91 80.7054 393.693 80.9662 392.292 81.0374C390.853 81.1106 389.572 80.9768 388.448 80.6361C387.337 80.2824 386.452 79.7555 385.795 79.0554C385.137 78.3429 384.765 77.5041 384.679 76.5388ZM400.354 75.742L404.278 75.5425C404.36 75.9238 404.556 76.2494 404.869 76.5195C405.181 76.7895 405.589 76.9926 406.093 77.1285C406.609 77.2515 407.208 77.2956 407.89 77.261C408.832 77.2131 409.57 77.0575 410.104 76.7941C410.637 76.5184 410.891 76.1449 410.867 75.6738C410.849 75.3142 410.68 75.0431 410.36 74.8604C410.04 74.6778 409.437 74.5654 408.552 74.5234L405.936 74.414C404.006 74.3381 402.588 73.975 401.685 73.3247C400.781 72.6621 400.299 71.7356 400.239 70.5452C400.189 69.578 400.427 68.7455 400.951 68.0476C401.487 67.349 402.255 66.8065 403.255 66.42C404.266 66.0205 405.454 65.7861 406.818 65.7167C408.157 65.6487 409.357 65.7803 410.419 66.1118C411.479 66.4308 412.331 66.9221 412.974 67.5856C413.629 68.2485 414.005 69.0374 414.101 69.9525L410.195 70.151C410.128 69.8187 409.953 69.5417 409.668 69.32C409.395 69.0853 409.026 68.9175 408.561 68.8169C408.095 68.7038 407.54 68.6636 406.895 68.6964C406.027 68.7405 405.345 68.8933 404.848 69.1547C404.351 69.4038 404.114 69.7515 404.137 70.1979C404.153 70.5203 404.315 70.7731 404.623 70.9564C404.943 71.139 405.502 71.2473 406.299 71.2814L409.085 71.4195C410.418 71.4761 411.489 71.6392 412.298 71.9088C413.107 72.1661 413.705 72.5522 414.091 73.0671C414.478 73.582 414.692 74.2362 414.732 75.0298C414.782 76.0093 414.534 76.8797 413.988 77.6409C413.442 78.3897 412.652 78.9955 411.619 79.4583C410.585 79.9086 409.368 80.1694 407.967 80.2406C406.528 80.3138 405.247 80.18 404.124 79.8393C403.012 79.4856 402.127 78.9587 401.47 78.2586C400.812 77.5462 400.44 76.7073 400.354 75.742Z" fill="#10141C"/>
<defs>
<linearGradient id="paint0_linear_218_4174" x1="91.6932" y1="27.4988" x2="1408.41" y2="16.1331" gradientUnits="userSpaceOnUse">
<stop offset="0.342728" stop-color="#FFE4A4"/>
<stop offset="0.439609" stop-color="#796638"/>
<stop offset="0.595" stop-color="#796638"/>
<stop offset="0.691563" stop-color="#FFE4A4"/>
</linearGradient>
</defs>
</svg>
