<svg width="27" height="27" viewBox="0 0 27 27" fill="none" xmlns="http://www.w3.org/2000/svg">
<g filter="url(#filter0_ii_293_8682)">
<path d="M4.84725 22.1531V24.0773H8.69257V26H18.3078V24.0773H22.1531V22.1531H24.0773V18.3078H26V8.69257H24.0773V4.84725H22.1531V2.92343H18.3078V1H8.69257V2.92343H4.84725V4.84725H2.92343V8.69257H1V10.7282V16.3263V18.3078H2.92343V22.1531H4.84725Z" fill="#7745CB"/>
</g>
<path d="M2.92343 22.6531H4.34725V24.0773V24.5773H4.84725H8.19257V26V26.5H8.69257H18.3078H18.8078V26V24.5773H22.1531H22.6531V24.0773V22.6531H24.0773H24.5773V22.1531V18.8078H26H26.5V18.3078V8.69257V8.19257H26H24.5773V4.84725V4.34725H24.0773H22.6531V2.92343V2.42343H22.1531H18.8078V1V0.5H18.3078H8.69257H8.19257V1V2.42343H4.84725H4.34725V2.92343V4.34725H2.92343H2.42343V4.84725V8.19257H1H0.5V8.69257V10.7282V16.3263V18.3078V18.8078H1H2.42343V22.1531V22.6531H2.92343Z" stroke="black" stroke-opacity="0.64"/>
<g clip-path="url(#clip0_293_8682)">
<path d="M16.8827 10.8275C16.62 10.6774 16.2823 10.6774 15.9821 10.8275L13.8806 12.0659L12.4546 12.854L10.3906 14.0923C10.1279 14.2424 9.79019 14.2424 9.48998 14.0923L7.87633 13.1167C7.61365 12.9665 7.42601 12.6663 7.42601 12.3286V10.4523C7.42601 10.152 7.57612 9.85183 7.87633 9.6642L9.48998 8.72603C9.75266 8.57593 10.0904 8.57593 10.3906 8.72603L12.0043 9.70173C12.2669 9.85183 12.4546 10.152 12.4546 10.4898V11.7282L13.8806 10.9026V9.62667C13.8806 9.32646 13.7305 9.02625 13.4303 8.83861L10.4281 7.07486C10.1655 6.92475 9.82772 6.92475 9.5275 7.07486L6.45032 8.87614C6.15011 9.02625 6 9.32646 6 9.62667V13.1542C6 13.4544 6.15011 13.7546 6.45032 13.9422L9.48998 15.706C9.75266 15.8561 10.0904 15.8561 10.3906 15.706L12.4546 14.5051L13.8806 13.6795L15.9446 12.4787C16.2072 12.3286 16.545 12.3286 16.8452 12.4787L18.4588 13.4169C18.7215 13.567 18.9092 13.8672 18.9092 14.2049V16.0813C18.9092 16.3815 18.7591 16.6817 18.4588 16.8693L16.8827 17.8075C16.62 17.9576 16.2823 17.9576 15.9821 17.8075L14.3684 16.8693C14.1058 16.7192 13.9181 16.419 13.9181 16.0813V14.8804L12.4921 15.706V16.9444C12.4921 17.2446 12.6422 17.5448 12.9424 17.7324L15.9821 19.4962C16.2448 19.6463 16.5825 19.6463 16.8827 19.4962L19.9224 17.7324C20.1851 17.5823 20.3727 17.2821 20.3727 16.9444V13.3793C20.3727 13.0791 20.2226 12.7789 19.9224 12.5913L16.8827 10.8275Z" fill="white"/>
</g>
<defs>
<filter id="filter0_ii_293_8682" x="0" y="0" width="27" height="27" filterUnits="userSpaceOnUse" color-interpolation-filters="sRGB">
<feFlood flood-opacity="0" result="BackgroundImageFix"/>
<feBlend mode="normal" in="SourceGraphic" in2="BackgroundImageFix" result="shape"/>
<feColorMatrix in="SourceAlpha" type="matrix" values="0 0 0 0 0 0 0 0 0 0 0 0 0 0 0 0 0 0 127 0" result="hardAlpha"/>
<feOffset dy="-2"/>
<feComposite in2="hardAlpha" operator="arithmetic" k2="-1" k3="1"/>
<feColorMatrix type="matrix" values="0 0 0 0 0.204153 0 0 0 0 0.0231226 0 0 0 0 0.508285 0 0 0 1 0"/>
<feBlend mode="normal" in2="shape" result="effect1_innerShadow_293_8682"/>
<feColorMatrix in="SourceAlpha" type="matrix" values="0 0 0 0 0 0 0 0 0 0 0 0 0 0 0 0 0 0 127 0" result="hardAlpha"/>
<feOffset dy="1.56694"/>
<feComposite in2="hardAlpha" operator="arithmetic" k2="-1" k3="1"/>
<feColorMatrix type="matrix" values="0 0 0 0 1 0 0 0 0 1 0 0 0 0 1 0 0 0 0.53 0"/>
<feBlend mode="normal" in2="effect1_innerShadow_293_8682" result="effect2_innerShadow_293_8682"/>
</filter>
<clipPath id="clip0_293_8682">
<rect width="14.4102" height="12.5714" fill="white" transform="translate(6 7)"/>
</clipPath>
</defs>
</svg>
