<svg width="27" height="27" viewBox="0 0 27 27" fill="none" xmlns="http://www.w3.org/2000/svg">
<g filter="url(#filter0_ii_293_8851)">
<path d="M4.84725 22.1531V24.0773H8.69257V26H18.3078V24.0773H22.1531V22.1531H24.0773V18.3078H26V8.69257H24.0773V4.84725H22.1531V2.92343H18.3078V1H8.69257V2.92343H4.84725V4.84725H2.92343V8.69257H1V10.7282V16.3263V18.3078H2.92343V22.1531H4.84725Z" fill="#171717"/>
</g>
<path d="M2.92343 22.6531H4.34725V24.0773V24.5773H4.84725H8.19257V26V26.5H8.69257H18.3078H18.8078V26V24.5773H22.1531H22.6531V24.0773V22.6531H24.0773H24.5773V22.1531V18.8078H26H26.5V18.3078V8.69257V8.19257H26H24.5773V4.84725V4.34725H24.0773H22.6531V2.92343V2.42343H22.1531H18.8078V1V0.5H18.3078H8.69257H8.19257V1V2.42343H4.84725H4.34725V2.92343V4.34725H2.92343H2.42343V4.84725V8.19257H1H0.5V8.69257V10.7282V16.3263V18.3078V18.8078H1H2.42343V22.1531V22.6531H2.92343Z" stroke="black" stroke-opacity="0.64"/>
<path d="M19.9382 16.3348L17.9572 18.4275C17.9142 18.4729 17.8621 18.5092 17.8042 18.5339C17.7463 18.5587 17.6838 18.5715 17.6207 18.5714H8.22998C8.18517 18.5714 8.14134 18.5585 8.10387 18.5343C8.0664 18.5101 8.03692 18.4757 8.01906 18.4352C8.0012 18.3947 7.99573 18.35 8.00333 18.3065C8.01093 18.263 8.03126 18.2226 8.06183 18.1904L10.0443 16.0977C10.0872 16.0524 10.1392 16.0162 10.1969 15.9914C10.2546 15.9667 10.3169 15.9538 10.3798 15.9537H19.77C19.8148 15.9537 19.8587 15.9666 19.8962 15.9908C19.9336 16.015 19.963 16.0495 19.981 16.09C19.9988 16.1305 20.0043 16.1752 19.9967 16.2187C19.9891 16.2622 19.9688 16.3025 19.9382 16.3348ZM17.9572 12.1208C17.9142 12.0754 17.8621 12.0391 17.8042 12.0144C17.7463 11.9896 17.6838 11.9768 17.6207 11.9769H8.22998C8.18517 11.9769 8.14134 11.9898 8.10387 12.014C8.0664 12.0382 8.03692 12.0726 8.01906 12.1131C8.0012 12.1536 7.99573 12.1983 8.00333 12.2418C8.01093 12.2853 8.03126 12.3257 8.06183 12.358L10.0443 14.4506C10.0872 14.4959 10.1392 14.5321 10.1969 14.5569C10.2546 14.5816 10.3169 14.5945 10.3798 14.5946H19.77C19.8148 14.5946 19.8587 14.5817 19.8962 14.5575C19.9336 14.5333 19.963 14.4988 19.981 14.4583C19.9988 14.4178 20.0043 14.3731 19.9967 14.3296C19.9891 14.2861 19.9688 14.2458 19.9382 14.2135L17.9572 12.1208ZM8.22998 10.6177H17.6207C17.6838 10.6177 17.7463 10.605 17.8042 10.5802C17.8621 10.5554 17.9142 10.5192 17.9572 10.4737L19.9382 8.38107C19.9688 8.34881 19.9891 8.30844 19.9967 8.26495C20.0043 8.22145 19.9988 8.17671 19.981 8.13624C19.963 8.09576 19.9336 8.0613 19.8962 8.0371C19.8587 8.0129 19.8148 8 19.77 8H10.3798C10.3169 8.00011 10.2546 8.01294 10.1969 8.0377C10.1392 8.06247 10.0872 8.09864 10.0443 8.14397L8.06234 10.2366C8.0318 10.2688 8.01148 10.3092 8.00386 10.3526C7.99625 10.3961 8.00167 10.4408 8.01947 10.4812C8.03727 10.5217 8.06666 10.5561 8.10406 10.5804C8.14145 10.6046 8.18521 10.6176 8.22998 10.6177Z" fill="url(#paint0_linear_293_8851)"/>
<defs>
<filter id="filter0_ii_293_8851" x="0" y="0" width="27" height="27" filterUnits="userSpaceOnUse" color-interpolation-filters="sRGB">
<feFlood flood-opacity="0" result="BackgroundImageFix"/>
<feBlend mode="normal" in="SourceGraphic" in2="BackgroundImageFix" result="shape"/>
<feColorMatrix in="SourceAlpha" type="matrix" values="0 0 0 0 0 0 0 0 0 0 0 0 0 0 0 0 0 0 127 0" result="hardAlpha"/>
<feOffset dy="-2"/>
<feComposite in2="hardAlpha" operator="arithmetic" k2="-1" k3="1"/>
<feColorMatrix type="matrix" values="0 0 0 0 0.0380726 0 0 0 0 0 0 0 0 0 0.102035 0 0 0 1 0"/>
<feBlend mode="normal" in2="shape" result="effect1_innerShadow_293_8851"/>
<feColorMatrix in="SourceAlpha" type="matrix" values="0 0 0 0 0 0 0 0 0 0 0 0 0 0 0 0 0 0 127 0" result="hardAlpha"/>
<feOffset dy="1.56694"/>
<feComposite in2="hardAlpha" operator="arithmetic" k2="-1" k3="1"/>
<feColorMatrix type="matrix" values="0 0 0 0 1 0 0 0 0 1 0 0 0 0 1 0 0 0 0.53 0"/>
<feBlend mode="normal" in2="effect1_innerShadow_293_8851" result="effect2_innerShadow_293_8851"/>
</filter>
<linearGradient id="paint0_linear_293_8851" x1="9.01294" y1="18.8234" x2="18.6944" y2="7.74334" gradientUnits="userSpaceOnUse">
<stop offset="0.08" stop-color="#9945FF"/>
<stop offset="0.3" stop-color="#8752F3"/>
<stop offset="0.5" stop-color="#5497D5"/>
<stop offset="0.6" stop-color="#43B4CA"/>
<stop offset="0.72" stop-color="#28E0B9"/>
<stop offset="0.97" stop-color="#19FB9B"/>
</linearGradient>
</defs>
</svg>
