<svg width="24" height="24" viewBox="0 0 24 24" fill="none" xmlns="http://www.w3.org/2000/svg">
<circle cx="12" cy="12" r="12" fill="#22A079"/>
<path d="M12.5126 19.96H11.8326C11.6459 19.96 11.5526 19.8667 11.5526 19.68V18H11.0726C10.1792 18 9.46591 17.7333 8.93258 17.2C8.41258 16.6667 8.15258 15.9467 8.15258 15.04V14.48C8.15258 14.2933 8.23924 14.2 8.41258 14.2H9.33258C9.50591 14.2 9.59258 14.2933 9.59258 14.48V14.92C9.59258 16.12 10.1859 16.72 11.3726 16.72H12.6326C13.8192 16.72 14.4126 16.1067 14.4126 14.88V13.94C14.4126 13.3133 14.2392 12.8733 13.8926 12.62C13.5459 12.3667 13.0192 12.2267 12.3126 12.2L11.2126 12.18C10.2526 12.14 9.49924 11.9067 8.95258 11.48C8.40591 11.0533 8.13258 10.2867 8.13258 9.18V8.08C8.13258 7.16 8.39258 6.44 8.91258 5.92C9.44591 5.38667 10.1659 5.12 11.0726 5.12H11.5526V3.42C11.5526 3.23333 11.6459 3.14 11.8326 3.14H12.5126C12.6992 3.14 12.7926 3.23333 12.7926 3.42V5.12H12.9326C13.7992 5.12 14.4926 5.38667 15.0126 5.92C15.5326 6.45333 15.7926 7.17333 15.7926 8.08V8.58C15.7926 8.78 15.6992 8.88 15.5126 8.88H14.6126C14.4259 8.88 14.3326 8.78 14.3326 8.58V8.2C14.3326 7 13.7392 6.4 12.5526 6.4H11.3726C10.1859 6.4 9.59258 7.02667 9.59258 8.28V9.22C9.59258 9.82 9.75924 10.24 10.0926 10.48C10.4392 10.7067 10.9659 10.8333 11.6726 10.86L12.9126 10.9C13.8192 10.94 14.5392 11.18 15.0726 11.62C15.6059 12.06 15.8726 12.8133 15.8726 13.88V15.04C15.8726 15.96 15.6059 16.6867 15.0726 17.22C14.5526 17.74 13.8392 18 12.9326 18H12.7926V19.68C12.7926 19.8667 12.6992 19.96 12.5126 19.96Z" fill="white"/>
</svg>
