<svg width="27" height="27" viewBox="0 0 27 27" fill="none" xmlns="http://www.w3.org/2000/svg">
<g filter="url(#filter0_ii_293_8683)">
<path d="M4.84725 22.1531V24.0773H8.69257V26H18.3078V24.0773H22.1531V22.1531H24.0773V18.3078H26V8.69257H24.0773V4.84725H22.1531V2.92343H18.3078V1H8.69257V2.92343H4.84725V4.84725H2.92343V8.69257H1V10.7282V16.3263V18.3078H2.92343V22.1531H4.84725Z" fill="#276EBB"/>
</g>
<path d="M2.92343 22.6531H4.34725V24.0773V24.5773H4.84725H8.19257V26V26.5H8.69257H18.3078H18.8078V26V24.5773H22.1531H22.6531V24.0773V22.6531H24.0773H24.5773V22.1531V18.8078H26H26.5V18.3078V8.69257V8.19257H26H24.5773V4.84725V4.34725H24.0773H22.6531V2.92343V2.42343H22.1531H18.8078V1V0.5H18.3078H8.69257H8.19257V1V2.42343H4.84725H4.34725V2.92343V4.34725H2.92343H2.42343V4.84725V8.19257H1H0.5V8.69257V10.7282V16.3263V18.3078V18.8078H1H2.42343V22.1531V22.6531H2.92343Z" stroke="black" stroke-opacity="0.64"/>
<path d="M17.3225 15.402C17.3225 13.6566 16.273 13.0511 14.173 12.8013C12.6719 12.6017 12.373 12.2013 12.373 11.502C12.373 10.8027 12.8727 10.3511 13.8719 10.3511C14.773 10.3511 15.2727 10.6511 15.5225 11.4017C15.5493 11.474 15.5977 11.5363 15.6611 11.5802C15.7245 11.6241 15.7999 11.6475 15.877 11.6471H16.6767C16.723 11.6483 16.7691 11.6401 16.8121 11.6229C16.8551 11.6057 16.8942 11.58 16.927 11.5472C16.9597 11.5145 16.9855 11.4754 17.0026 11.4323C17.0198 11.3893 17.0281 11.3432 17.0269 11.2969V11.2478C16.9302 10.7059 16.6574 10.2111 16.2506 9.8402C15.8438 9.46933 15.3259 9.24319 14.7774 9.19693V7.99693C14.7774 7.79729 14.6269 7.64784 14.377 7.59766H13.6265C13.4269 7.59766 13.2774 7.74711 13.2272 7.99693V9.15111C11.7229 9.3562 10.7727 10.3511 10.7727 11.6013C10.7727 13.2518 11.773 13.902 13.873 14.1518C15.2727 14.4017 15.7276 14.6973 15.7276 15.5013C15.7276 16.3053 15.0283 16.8518 14.0781 16.8518C12.7778 16.8518 12.3327 16.3064 12.1778 15.5515C12.1635 15.4671 12.1201 15.3905 12.0551 15.3349C11.9901 15.2793 11.9077 15.2482 11.8221 15.2471H10.9679C10.9217 15.2461 10.8757 15.2544 10.8327 15.2716C10.7898 15.2889 10.7507 15.3146 10.718 15.3474C10.6853 15.3801 10.6595 15.4191 10.6423 15.4621C10.6251 15.505 10.6167 15.551 10.6178 15.5973V15.6475C10.8185 16.8977 11.6181 17.7977 13.2687 18.0475V19.2475C13.2687 19.4471 13.4181 19.5977 13.6679 19.6478H14.4185C14.6181 19.6478 14.7687 19.4973 14.8178 19.2475V18.0475C16.3178 17.7977 17.3181 16.7471 17.3181 15.3977L17.3225 15.402Z" fill="white"/>
<path d="M11.4719 20.6518C10.0332 20.1241 8.79128 19.1674 7.9139 17.9111C7.03652 16.6547 6.56603 15.1593 6.56603 13.6269C6.56603 12.0945 7.03652 10.5991 7.9139 9.3427C8.79128 8.08635 10.0332 7.12967 11.4719 6.60198C11.5679 6.56046 11.6485 6.48999 11.7025 6.40041C11.7565 6.31083 11.7811 6.20662 11.773 6.10235V5.40198C11.7797 5.31012 11.7529 5.21892 11.6976 5.14531C11.6422 5.07169 11.562 5.02064 11.4719 5.00162C11.4015 4.99428 11.3308 5.01205 11.2723 5.0518C9.452 5.63036 7.86306 6.77316 6.73543 8.31479C5.6078 9.85641 5 11.7169 5 13.6269C5 15.5369 5.6078 17.3974 6.73543 18.939C7.86306 20.4806 9.452 21.6234 11.2723 22.202C11.3139 22.2261 11.3606 22.2401 11.4086 22.2427C11.4566 22.2453 11.5045 22.2366 11.5485 22.2171C11.5924 22.1976 11.6311 22.168 11.6615 22.1307C11.6918 22.0933 11.7128 22.0494 11.7228 22.0023C11.773 21.9522 11.773 21.902 11.773 21.8016V21.1023C11.773 20.9518 11.6225 20.7522 11.4719 20.6518ZM16.7726 5.0518C16.731 5.02765 16.6842 5.01372 16.6361 5.01116C16.5881 5.00861 16.5401 5.01749 16.4961 5.03708C16.4521 5.05667 16.4134 5.08641 16.3832 5.12387C16.3529 5.16132 16.332 5.20541 16.3221 5.25253C16.273 5.30162 16.273 5.3518 16.273 5.45216V6.15144C16.2814 6.25227 16.3129 6.34984 16.3649 6.43664C16.4169 6.52344 16.4881 6.59717 16.573 6.65216C18.0117 7.17985 19.2536 8.13653 20.131 9.39288C21.0084 10.6492 21.4789 12.1447 21.4789 13.6771C21.4789 15.2095 21.0084 16.7049 20.131 17.9613C19.2536 19.2176 18.0117 20.1743 16.573 20.702C16.4771 20.7435 16.3966 20.8141 16.3428 20.9037C16.289 20.9933 16.2646 21.0974 16.273 21.2016V21.902C16.2662 21.9937 16.2929 22.0848 16.348 22.1584C16.4032 22.232 16.4831 22.2831 16.573 22.3023C16.6434 22.3097 16.7141 22.2919 16.7726 22.2522C18.5922 21.6656 20.1789 20.517 21.3044 18.9717C22.4299 17.4263 23.0363 15.5638 23.0363 13.652C23.0363 11.7402 22.4299 9.87767 21.3044 8.3323C20.1789 6.78694 18.5922 5.63837 16.7726 5.0518Z" fill="white"/>
<defs>
<filter id="filter0_ii_293_8683" x="0" y="0" width="27" height="27" filterUnits="userSpaceOnUse" color-interpolation-filters="sRGB">
<feFlood flood-opacity="0" result="BackgroundImageFix"/>
<feBlend mode="normal" in="SourceGraphic" in2="BackgroundImageFix" result="shape"/>
<feColorMatrix in="SourceAlpha" type="matrix" values="0 0 0 0 0 0 0 0 0 0 0 0 0 0 0 0 0 0 127 0" result="hardAlpha"/>
<feOffset dy="-2"/>
<feComposite in2="hardAlpha" operator="arithmetic" k2="-1" k3="1"/>
<feColorMatrix type="matrix" values="0 0 0 0 0.0883292 0 0 0 0 0.231094 0 0 0 0 0.51377 0 0 0 1 0"/>
<feBlend mode="normal" in2="shape" result="effect1_innerShadow_293_8683"/>
<feColorMatrix in="SourceAlpha" type="matrix" values="0 0 0 0 0 0 0 0 0 0 0 0 0 0 0 0 0 0 127 0" result="hardAlpha"/>
<feOffset dy="1.56694"/>
<feComposite in2="hardAlpha" operator="arithmetic" k2="-1" k3="1"/>
<feColorMatrix type="matrix" values="0 0 0 0 1 0 0 0 0 1 0 0 0 0 1 0 0 0 0.53 0"/>
<feBlend mode="normal" in2="effect1_innerShadow_293_8683" result="effect2_innerShadow_293_8683"/>
</filter>
</defs>
</svg>
