<svg width="27" height="27" viewBox="0 0 27 27" fill="none" xmlns="http://www.w3.org/2000/svg">
<g filter="url(#filter0_ii_293_8535)">
<path d="M4.84725 22.1531V24.0773H8.69257V26H18.3078V24.0773H22.1531V22.1531H24.0773V18.3078H26V8.69257H24.0773V4.84725H22.1531V2.92343H18.3078V1H8.69257V2.92343H4.84725V4.84725H2.92343V8.69257H1V10.7282V16.3263V18.3078H2.92343V22.1531H4.84725Z" fill="#05AD80"/>
</g>
<path d="M2.92343 22.6531H4.34725V24.0773V24.5773H4.84725H8.19257V26V26.5H8.69257H18.3078H18.8078V26V24.5773H22.1531H22.6531V24.0773V22.6531H24.0773H24.5773V22.1531V18.8078H26H26.5V18.3078V8.69257V8.19257H26H24.5773V4.84725V4.34725H24.0773H22.6531V2.92343V2.42343H22.1531H18.8078V1V0.5H18.3078H8.69257H8.19257V1V2.42343H4.84725H4.34725V2.92343V4.34725H2.92343H2.42343V4.84725V8.19257H1H0.5V8.69257V10.7282V16.3263V18.3078V18.8078H1H2.42343V22.1531V22.6531H2.92343Z" stroke="black" stroke-opacity="0.64"/>
<path d="M11.9197 13.2508V10.1321H7.6897V7.39832H19.5101V10.1706H15.28V13.2508H11.9197Z" fill="white"/>
<path fill-rule="evenodd" clip-rule="evenodd" d="M5.87012 13.5975C5.87012 12.5579 9.26996 11.7108 13.5 11.7108C17.73 11.7108 21.1299 12.5579 21.1299 13.5975C21.1299 14.6371 17.73 15.4842 13.5 15.4842C9.26996 15.4842 5.87012 14.6371 5.87012 13.5975ZM20.4981 13.5976C20.2213 13.2126 17.9284 12.0189 13.5007 12.0189C9.07303 12.0189 6.78012 13.1741 6.50339 13.5976C6.78012 13.9826 9.07303 14.5602 13.5007 14.5602C17.968 14.5602 20.2213 13.9826 20.4981 13.5976Z" fill="white"/>
<path d="M15.279 14.2135V12.0574C14.7256 12.0189 14.1326 11.9803 13.5396 11.9803C12.9861 11.9803 12.4722 11.9803 11.9583 12.0189V14.175C12.4326 14.175 12.9861 14.2135 13.5396 14.2135C14.1326 14.2521 14.7256 14.2521 15.279 14.2135Z" fill="white"/>
<path d="M13.5003 15.4841C12.9468 15.4841 12.4329 15.4841 11.9189 15.4456V21.1826H15.2397V15.4071C14.6863 15.4456 14.0933 15.4841 13.5003 15.4841Z" fill="white"/>
<defs>
<filter id="filter0_ii_293_8535" x="0" y="0" width="27" height="27" filterUnits="userSpaceOnUse" color-interpolation-filters="sRGB">
<feFlood flood-opacity="0" result="BackgroundImageFix"/>
<feBlend mode="normal" in="SourceGraphic" in2="BackgroundImageFix" result="shape"/>
<feColorMatrix in="SourceAlpha" type="matrix" values="0 0 0 0 0 0 0 0 0 0 0 0 0 0 0 0 0 0 127 0" result="hardAlpha"/>
<feOffset dy="-2"/>
<feComposite in2="hardAlpha" operator="arithmetic" k2="-1" k3="1"/>
<feColorMatrix type="matrix" values="0 0 0 0 0 0 0 0 0 0.266653 0 0 0 0 0.195974 0 0 0 0.63 0"/>
<feBlend mode="normal" in2="shape" result="effect1_innerShadow_293_8535"/>
<feColorMatrix in="SourceAlpha" type="matrix" values="0 0 0 0 0 0 0 0 0 0 0 0 0 0 0 0 0 0 127 0" result="hardAlpha"/>
<feOffset dy="1.56694"/>
<feComposite in2="hardAlpha" operator="arithmetic" k2="-1" k3="1"/>
<feColorMatrix type="matrix" values="0 0 0 0 1 0 0 0 0 1 0 0 0 0 1 0 0 0 0.53 0"/>
<feBlend mode="normal" in2="effect1_innerShadow_293_8535" result="effect2_innerShadow_293_8535"/>
</filter>
</defs>
</svg>
