<svg width="28" height="28" viewBox="0 0 28 28" fill="none" xmlns="http://www.w3.org/2000/svg">
<path d="M23.0984 4.73072C21.4248 3.95839 19.631 3.3896 17.755 3.06394C17.7211 3.05734 17.6872 3.07384 17.6686 3.10465C17.4378 3.51722 17.1819 4.05631 17.0036 4.47878C14.9855 4.17513 12.9783 4.17513 11.0017 4.47878C10.8235 4.04641 10.5577 3.51722 10.3269 3.10465C10.3083 3.07384 10.2744 3.05844 10.2404 3.06394C8.36562 3.3885 6.57175 3.95729 4.8971 4.73072C4.88288 4.73622 4.86975 4.74722 4.8621 4.76042C1.4592 9.87408 0.526165 14.8623 0.983384 19.7889C0.985572 19.8131 0.998698 19.8362 1.01729 19.8505C3.26292 21.5096 5.43745 22.5163 7.5726 23.183C7.60651 23.194 7.6426 23.1808 7.66448 23.1522C8.16983 22.4591 8.61939 21.7275 9.00551 20.9584C9.02848 20.9133 9.00661 20.8594 8.95957 20.8418C8.2453 20.569 7.56604 20.2367 6.91193 19.8604C6.86052 19.8296 6.85614 19.7559 6.90318 19.7196C7.041 19.6162 7.17882 19.5084 7.31008 19.3995C7.33415 19.3797 7.36696 19.3753 7.3954 19.3885C11.692 21.3611 16.3429 21.3611 20.5881 19.3885C20.6165 19.3753 20.6493 19.3786 20.6745 19.3995C20.8057 19.5084 20.9435 19.6173 21.0825 19.7207C21.1306 19.7559 21.1273 19.8307 21.0748 19.8615C20.4207 20.2455 19.7414 20.5712 19.0261 20.8418C18.979 20.8594 18.9593 20.9144 18.9812 20.9595C19.375 21.7275 19.8257 22.4591 20.3212 23.1522C20.3419 23.1819 20.3791 23.194 20.413 23.1841C22.558 22.5163 24.7337 21.5096 26.9782 19.8516C26.9979 19.8373 27.0099 19.8153 27.0121 19.7911C27.559 14.0955 26.0955 9.14796 23.1312 4.76263C23.1257 4.74722 23.1126 4.73622 23.0984 4.73072ZM9.64759 16.7898C8.35359 16.7898 7.2882 15.595 7.2882 14.1285C7.2882 12.6619 8.33281 11.4671 9.64759 11.4671C10.9722 11.4671 12.0278 12.6718 12.007 14.1285C12.007 15.5961 10.9613 16.7898 9.64759 16.7898ZM18.3709 16.7898C17.078 16.7898 16.0115 15.595 16.0115 14.1285C16.0115 12.6619 17.0561 11.4671 18.3709 11.4671C19.6955 11.4671 20.751 12.6718 20.7302 14.1285C20.7302 15.5961 19.6955 16.7898 18.3709 16.7898Z" fill="white"/>
</svg>
