<svg width="171" height="53" viewBox="0 0 171 53" fill="none" xmlns="http://www.w3.org/2000/svg">
<path d="M83.6315 20.0684H94.2309V24.8849H89.8901V29.4488H93.7552V34.0274H89.8901V44.1362H83.6315V20.0684ZM101.412 20.0684V39.3197H105.217V44.1362H95.1532V20.0684H101.412ZM112.398 20.0684V44.1362H106.14V20.0684H112.398ZM114.302 20.0684H120.605C122.309 20.0684 123.618 20.2022 124.529 20.4698C125.451 20.7374 126.14 21.1239 126.596 21.6293C127.061 22.1348 127.374 22.7492 127.532 23.4727C127.701 24.1863 127.785 25.2962 127.785 26.8026V28.8987C127.785 30.4349 127.626 31.5548 127.309 32.2584C126.992 32.9621 126.407 33.5022 125.555 33.8788C124.713 34.2554 123.608 34.4437 122.24 34.4437H120.56V44.1362H114.302V20.0684ZM120.56 24.1863V30.311C120.739 30.3209 120.892 30.3258 121.021 30.3258C121.596 30.3258 121.992 30.1871 122.21 29.9096C122.438 29.6222 122.552 29.0325 122.552 28.1406V26.1634C122.552 25.3408 122.423 24.8057 122.166 24.5579C121.908 24.3101 121.373 24.1863 120.56 24.1863ZM128.975 20.0684H139.574V24.8849H135.233V29.4488H139.098V34.0274H135.233V44.1362H128.975V20.0684ZM154.797 34.1612C154.797 36.5794 154.738 38.2939 154.619 39.3048C154.51 40.3058 154.153 41.2225 153.549 42.055C152.954 42.8875 152.146 43.5267 151.126 43.9727C150.105 44.4187 148.915 44.6417 147.558 44.6417C146.269 44.6417 145.11 44.4335 144.079 44.0173C143.058 43.5911 142.236 42.9569 141.611 42.1145C140.987 41.2721 140.615 40.3553 140.496 39.3643C140.377 38.3732 140.318 36.6389 140.318 34.1612V30.0434C140.318 27.6252 140.373 25.9156 140.482 24.9147C140.6 23.9038 140.957 22.9821 141.552 22.1496C142.156 21.3171 142.969 20.6779 143.99 20.2319C145.011 19.786 146.2 19.563 147.558 19.563C148.846 19.563 150.001 19.776 151.021 20.2022C152.052 20.6184 152.88 21.2478 153.504 22.0902C154.128 22.9326 154.5 23.8493 154.619 24.8403C154.738 25.8314 154.797 27.5658 154.797 30.0434V34.1612ZM148.539 26.2526C148.539 25.1327 148.474 24.4191 148.346 24.1119C148.227 23.7948 147.974 23.6362 147.587 23.6362C147.26 23.6362 147.008 23.7651 146.829 24.0227C146.661 24.2705 146.577 25.0138 146.577 26.2526V37.4912C146.577 38.8886 146.631 39.7508 146.74 40.0779C146.859 40.4049 147.127 40.5684 147.543 40.5684C147.969 40.5684 148.242 40.3801 148.36 40.0035C148.479 39.6269 148.539 38.73 148.539 37.3128V26.2526ZM169.218 20.0684L167.033 30.7124L170.333 44.1362H164.535C163.841 41.7379 163.207 38.8192 162.632 35.3802C162.474 36.8966 162.256 38.507 161.978 40.2116L161.384 44.1362H155.289L157.548 30.7124L155.289 20.0684H161.339C161.448 20.7324 161.666 21.8374 161.993 23.3835C162.251 24.5629 162.464 25.6431 162.632 26.6243L163.97 20.0684H169.218Z" fill="white"/>
<path fill-rule="evenodd" clip-rule="evenodd" d="M46.7952 42.2108C46.2038 43.3278 46.63 44.7127 47.7469 45.304L60.7146 52.1693C61.8316 52.7606 63.2165 52.3345 63.8078 51.2175C64.3992 50.1005 63.973 48.7157 62.8561 48.1243L49.8884 41.2591C48.7714 40.6677 47.3865 41.0938 46.7952 42.2108Z" fill="#BE4613"/>
<mask id="mask0_216_621" style="mask-type:alpha" maskUnits="userSpaceOnUse" x="0" y="0" width="57" height="50">
<path d="M22.8841 15.8205C17.1631 9.33671 6.10244 2.47147 0 2.47147C0 12.3879 4.57683 25.737 11.0607 30.6952C2.28841 34.8907 1.14421 48.6212 2.66982 49.7654C19.4515 39.8489 37.3774 52.8166 49.5823 44.8071C53.3963 41.7559 55.6847 38.3233 56.4476 35.2721C52.7607 34.5093 45.3869 32.1446 45.3869 28.7882C45.3869 25.4319 50.218 24.5928 52.6335 24.5928C50.3451 15.4391 36.903 4.33619 28.6052 0.564453C26.3168 4.37848 27.8424 12.7693 28.6052 13.9135C27.461 13.9135 24.0284 15.4391 22.8841 15.8205Z" fill="#EBA348"/>
</mask>
<g mask="url(#mask0_216_621)">
<path d="M22.8841 15.8205C17.1631 9.33671 6.10244 2.47147 0 2.47147C0 12.3879 4.57683 25.737 11.0607 30.6952C2.28841 34.8907 1.14421 48.6212 2.66982 49.7654C9.20912 45.9012 18.5295 44.8071 22.4027 46.0021C28.8262 47.9838 42.1333 49.6956 49.5823 44.8071C53.0815 42.0078 55.2966 38.8874 56.2275 36.035C56.362 35.6229 56.0946 35.1997 55.6726 35.1003C51.8195 34.1928 45.3869 31.9231 45.3869 28.7882C45.3869 25.4319 50.218 24.5928 52.6335 24.5928C50.3451 15.4391 36.903 4.33619 28.6052 0.564453C26.3168 4.37848 27.8424 12.7693 28.6052 13.9135C26.6982 14.2949 24.0284 15.4391 22.8841 15.8205Z" fill="url(#paint0_linear_216_621)"/>
<path d="M28.6032 3.61572C32.0358 5.14143 36.2312 7.42975 39.6638 11.2438C37.8596 10.986 38.5196 10.8624 36.2312 10.8624C36.994 11.6252 36.994 12.388 34.7056 12.7694C32.7986 13.1508 29.7887 13.6088 28.6032 13.9136C28.6032 13.9136 23.6187 14.2812 25.1706 11.6252C26.7224 8.96919 27.459 4.76002 28.6032 3.61572Z" fill="#BE4613"/>
</g>
<path fill-rule="evenodd" clip-rule="evenodd" d="M8.8599 30.2161C8.83002 29.7605 9.13579 29.3562 9.57584 29.2348L27.3636 24.3271L25.1916 28.8405C24.8232 25.8934 16.305 29.1999 9.88156 31.8347C9.50492 31.9892 9.08148 31.8151 9.00355 31.4155C8.93313 31.0545 8.88738 30.6349 8.8599 30.2161Z" fill="#171B23"/>
<path d="M48.5753 36.6624C50.6789 35.6751 53.9252 35.339 55.8535 35.2814C56.2034 35.2709 56.5124 35.5122 56.5069 35.8622C56.4808 37.5421 55.1295 40.2738 53.7782 40.6116C51.0034 40.3804 49.0756 39.1123 48.194 38.0691C47.7894 37.5904 48.0079 36.9287 48.5753 36.6624Z" fill="#171B23"/>
<path d="M61.441 38.019C59.8317 42.5189 62.4066 45.4635 62.8894 46.333C63.4472 42.3508 63.849 40.1713 66.1079 37.2039C71.9014 29.8681 91.5348 28.2379 91.5348 15.8484C91.5348 11.2839 87.5115 7.37147 80.5916 7.37147C73.6716 7.37147 71.5795 13.0771 64.1768 13.0771C58.2546 13.0771 59.8853 8.29524 61.441 5.9043C58.7588 7.31713 53.3945 10.6318 53.3945 14.5443C53.3945 18.9458 56.774 19.5979 59.8317 19.5979C62.8894 19.5979 73.3498 14.0552 73.3498 19.5979C73.3498 25.1405 63.3623 32.6466 61.441 38.019Z" fill="#353A4A"/>
<path d="M23.2674 35.5201C23.6481 35.5201 18.3284 37.0402 17.1712 41.2185C17.3984 40.7658 23.813 38.2446 32.8025 41.2411C38.5235 43.1482 49.5841 43.6627 53.7795 40.6115C53.7795 40.6115 51.1097 44.807 46.5329 46.3326C39.0318 48.8329 29.9912 47.3627 22.1232 45.9512C14.2552 44.5397 2.63672 49.7506 2.63672 49.7506C5.30654 42.1225 16.5011 33.5869 23.2674 35.5201Z" fill="white"/>
<path d="M33.562 28.4066H28.2223L27.0781 28.0252L32.4178 31.4578L35.8504 30.695L33.562 28.4066Z" fill="white"/>
<path d="M46.1482 29.9322L48.4367 29.5508L49.5809 27.2624V26.1182L46.5296 29.1694L46.1482 29.9322Z" fill="white"/>
<path d="M33.562 28.4066H28.2223L27.0781 28.0252L32.4178 31.4578L35.8504 30.695L33.562 28.4066Z" stroke="black" stroke-width="0.762805"/>
<path d="M46.1482 29.9322L48.4367 29.5508L49.5809 27.2624V26.1182L46.5296 29.1694L46.1482 29.9322Z" stroke="black" stroke-width="0.762805"/>
<mask id="mask1_216_621" style="mask-type:alpha" maskUnits="userSpaceOnUse" x="25" y="24" width="31" height="11">
<path d="M32.7309 34.8907C36.9057 34.8907 40.29 32.0219 40.29 28.4831C40.29 27.5274 40.8499 26.1891 42.7164 26.1891C44.0959 26.1891 44.5098 27.5274 44.5098 28.4831C44.5098 32.0219 47.0112 34.8907 50.0969 34.8907C53.1826 34.8907 55.6841 32.0219 55.6841 28.4831V26.4998C55.6841 25.236 54.6629 24.2114 53.3991 24.2114H28.219C26.5339 24.2114 25.1719 25.578 25.1719 27.2631V28.4831C25.1719 32.0219 28.5562 34.8907 32.7309 34.8907Z" fill="black"/>
</mask>
<g mask="url(#mask1_216_621)">
<path d="M32.7309 34.8907C36.9057 34.8907 40.29 32.0219 40.29 28.4831C40.29 27.5274 40.8499 26.1891 42.7164 26.1891C44.0959 26.1891 44.5098 27.5274 44.5098 28.4831C44.5098 32.0219 47.0112 34.8907 50.0969 34.8907C53.1826 34.8907 55.6841 32.0219 55.6841 28.4831V26.4998C55.6841 25.236 54.6629 24.2114 53.3991 24.2114H28.219C26.5339 24.2114 25.1719 25.578 25.1719 27.2631V28.4831C25.1719 32.0219 28.5562 34.8907 32.7309 34.8907Z" fill="#171B23"/>
<rect x="26.6875" y="18.3467" width="8.76424" height="14.4933" transform="rotate(15 26.6875 18.3467)" fill="white"/>
<rect x="47.1875" y="23.8398" width="2.42304" height="14.4933" transform="rotate(15 47.1875 23.8398)" fill="white"/>
<path d="M39.5272 28.4831C39.5272 31.4873 36.6075 34.1279 32.7309 34.1279C28.8544 34.1279 25.9347 31.4873 25.9347 28.4831V27.2631C25.9347 25.9991 26.9594 24.9742 28.2231 24.9742H53.3991C54.2401 24.9742 54.9213 25.6558 54.9213 26.4998V28.4831C54.9213 31.7021 52.6665 34.1279 50.0969 34.1279C47.5273 34.1279 45.2726 31.7022 45.2726 28.4831C45.2726 27.9167 45.1534 27.1922 44.7823 26.5816C44.3869 25.9309 43.707 25.4263 42.7164 25.4263C41.5804 25.4263 40.7476 25.8443 40.2141 26.4933C39.7029 27.115 39.5272 27.8737 39.5272 28.4831Z" stroke="#171B23" stroke-width="1.52561"/>
</g>
<path d="M45.0908 31.3008C45.414 32.6826 49.7636 33.2811 52.7002 34.2509L51.4888 35.2722H46.5306L44.2422 33.7466L45.0908 31.3008Z" fill="#F45D13"/>
<defs>
<linearGradient id="paint0_linear_216_621" x1="28.2238" y1="0.564453" x2="28.2238" y2="49.7654" gradientUnits="userSpaceOnUse">
<stop stop-color="#F26423"/>
<stop offset="0.06" stop-color="#F28021"/>
<stop offset="1" stop-color="#F6490A"/>
</linearGradient>
</defs>
</svg>
